<svg width="268" height="268" viewBox="0 0 268 268" fill="none" xmlns="http://www.w3.org/2000/svg">
<path d="M220.247 167.725L227.403 167.58L230.93 167.516C232.104 167.516 233.267 167.516 234.441 167.516L234.2 167.752L234.173 161.759L234.441 162.022L227.344 161.99C224.975 161.99 222.611 161.931 220.247 161.904L220.392 161.759C220.392 162.74 220.344 163.727 220.322 164.724L220.247 167.725ZM220.247 167.725L220.167 164.761C220.167 163.759 220.108 162.746 220.097 161.733V161.588H220.247C222.611 161.588 224.975 161.502 227.344 161.502L234.441 161.47H234.709V161.743L234.677 167.736V167.977H234.441C233.24 167.977 232.045 167.977 230.85 167.95L227.264 167.875L220.247 167.725Z" fill="#EBEBEB"/>
<path d="M228.164 175.272L235.32 175.127L238.847 175.063C240.02 175.063 241.189 175.063 242.357 175.036L242.116 175.272V169.28L242.384 169.542L235.288 169.51C232.918 169.51 230.555 169.451 228.191 169.424L228.336 169.28C228.336 170.26 228.287 171.247 228.266 172.244L228.164 175.272ZM228.164 175.272L228.089 172.308C228.062 171.306 228.025 170.293 228.014 169.28V169.135H228.164C230.528 169.108 232.892 169.049 235.261 169.049L242.357 169.017H242.625V169.29L242.593 175.272V175.513H242.357C241.162 175.513 239.961 175.513 238.766 175.486L235.196 175.422L228.164 175.272Z" fill="#EBEBEB"/>
<path d="M212.299 175.293H226.492V169.296H212.299V175.293Z" fill="#EBEBEB"/>
<path d="M25.6421 205.143L32.7816 204.999L36.2977 204.934C37.4662 204.934 38.6293 204.934 39.7925 204.934L39.5566 205.17L39.5245 199.194L39.7925 199.462L32.6958 199.392C30.3374 199.392 27.979 199.328 25.6206 199.301L25.7653 199.156C25.7653 200.132 25.7225 201.118 25.6957 202.115L25.6421 205.143ZM25.6421 205.143L25.567 202.19C25.5402 201.188 25.5081 200.18 25.4973 199.167V199.022H25.6421C28.0005 198.99 30.3589 198.936 32.7173 198.931L39.7925 198.899H40.0605V199.167V205.143V205.384H39.8246C38.6347 205.384 37.4394 205.384 36.2495 205.358L32.6583 205.288L25.6421 205.143Z" fill="#EBEBEB"/>
<path d="M33.5372 212.685H47.6876V206.703H33.5372V212.685Z" fill="#EBEBEB"/>
<path d="M62.4171 84.613L69.578 84.4629L73.1049 84.4039C74.2734 84.3771 75.4419 84.4039 76.6103 84.3771L76.3745 84.613L76.3423 78.6151L76.6103 78.8831L69.5137 78.851C67.15 78.851 64.7808 78.792 62.4171 78.7598L62.5618 78.6151C62.5618 79.596 62.5189 80.5876 62.4921 81.5846L62.4171 84.613ZM62.4171 84.613L62.342 81.6489C62.342 80.6466 62.2831 79.6335 62.2724 78.6151V78.4704H62.4171C64.7808 78.4436 67.15 78.3846 69.5137 78.3846L76.6103 78.3471H76.8783V78.6151L76.8516 84.613V84.8542H76.6157C75.4204 84.8542 74.2198 84.8542 73.0299 84.822L69.4601 84.763L62.4171 84.613Z" fill="#EBEBEB"/>
<path d="M33.4892 32.771H47.6824V26.7732L33.4892 26.7732V32.771Z" fill="#EBEBEB" fill-opacity="0.3"/>
<path d="M25.5776 40.334L32.7332 40.2L36.2601 40.141C37.434 40.141 38.5971 40.141 39.7709 40.141L39.5297 40.3769V34.379L39.7977 34.647L32.6957 34.572C30.3266 34.572 27.9628 34.513 25.5991 34.4809L25.7438 34.3362C25.7438 35.317 25.6956 36.3033 25.6741 37.3056L25.5776 40.334ZM25.5776 40.334L25.4972 37.3699C25.4972 36.3676 25.4383 35.3546 25.4276 34.3362V34.1914H25.5776C27.9414 34.1914 30.3052 34.1057 32.6743 34.1003L39.7709 34.0682H40.0389V34.3362L40.0068 40.334V40.5752H39.7709C38.5703 40.5752 37.375 40.5752 36.1797 40.543L32.61 40.4841L25.5776 40.334Z" fill="#EBEBEB"/>
<path d="M220.247 32.771L227.403 32.621L230.93 32.562C232.104 32.562 233.267 32.562 234.441 32.562L234.2 32.7978L234.173 26.8L234.441 27.068L227.344 27.0358C224.975 27.0358 222.611 26.9769 220.247 26.9447L220.392 26.8C220.392 27.7809 220.344 28.7671 220.322 29.7694L220.247 32.771ZM220.247 32.771L220.167 29.807C220.167 28.8046 220.108 27.7916 220.097 26.7732V26.6285H220.247C222.611 26.6285 224.975 26.5427 227.344 26.5374L234.441 26.5052H234.709V26.8L234.677 32.7978V33.039H234.441C233.24 33.039 232.045 33.039 230.85 33.0069L227.264 32.9211L220.247 32.771Z" fill="#EBEBEB"/>
<path d="M197.811 107.774H212.004V101.776H197.811V107.774Z" fill="#EBEBEB"/>
<path d="M165.983 128.801H243.204V26.7732L165.983 26.7732L165.983 128.801Z" fill="#EBEBEB" fill-opacity="0.3"/>
<path d="M206.135 76.2406H239.576V30.8575L206.135 30.8575V76.2406Z" fill="white" fill-opacity="0.2"/>
<path d="M169.601 76.2406H203.042V30.8575L169.601 30.8575V76.2406Z" fill="white" fill-opacity="0.2"/>
<path d="M206.135 124.711H239.576V79.328H206.135V124.711Z" fill="white" fill-opacity="0.2"/>
<path d="M169.601 124.711H203.042V79.328H169.601V124.711Z" fill="white" fill-opacity="0.2"/>
<path d="M191.781 26.7732H165.977V172.737H180.91L170.491 98.4632L191.781 26.7732Z" fill="#DBDBDB" fill-opacity="0.3"/>
<path d="M187.31 30.7182L183.231 47.6879L179.072 64.6362L170.748 98.5275L170.753 98.4364L174.602 133.855L176.521 151.565L178.354 169.285L176.258 151.597L174.243 133.898L170.223 98.4954L170.217 98.4471L170.228 98.3989L178.729 64.5505L182.979 47.6236L187.31 30.7182Z" fill="#EBEBEB"/>
<path d="M167.516 33.7144L167.644 48.3526L167.719 62.9907L167.784 92.267L167.719 121.543L167.644 136.182L167.516 150.82L167.382 136.182L167.307 121.543L167.248 92.267L167.307 62.9907L167.382 48.3526L167.516 33.7144Z" fill="#EBEBEB"/>
<path d="M172.334 36.4587L171.547 52.0188L170.705 67.5735L168.942 98.683V98.6615L169.799 133.33L170.174 150.659L170.491 167.998L169.901 150.67L169.37 133.341L168.416 98.6776V98.6615V98.6562L170.308 67.5521L171.3 52.0027L172.334 36.4587Z" fill="#EBEBEB"/>
<path d="M175.695 165.753L173.996 148.96L172.351 132.162C171.305 120.959 170.207 109.757 169.204 98.549V98.4793L173.996 72.3278L176.43 59.2548L178.901 46.1925L176.649 59.2923L174.361 72.3922L169.708 98.5704V98.5061C170.78 109.703 171.766 120.916 172.801 132.119L174.275 148.933L175.695 165.753Z" fill="#EBEBEB"/>
<path d="M165.983 100.645H171.809V97.2411H165.983V100.645Z" fill="#DBDBDB"/>
<path d="M217.337 26.7732H243.14V172.737H228.207L238.632 98.4632L217.337 26.7732Z" fill="#DBDBDB" fill-opacity="0.3"/>
<path d="M221.807 30.7182L226.138 47.6236L230.389 64.5505L238.89 98.3989L238.9 98.4471L238.895 98.4954L234.875 133.898L232.86 151.597L230.764 169.285L232.597 151.565L234.521 133.855L238.364 98.4364L238.37 98.5275L230.046 64.6362L225.886 47.6879L221.807 30.7182Z" fill="#EBEBEB"/>
<path d="M241.602 33.7144L241.736 48.3526L241.811 62.9907L241.87 92.267L241.811 121.543L241.736 136.182L241.602 150.82L241.473 136.182L241.398 121.543L241.339 92.267L241.398 62.9907L241.473 48.3526L241.602 33.7144Z" fill="#EBEBEB"/>
<path d="M236.783 36.4587L237.823 52.0027L238.809 67.5521L240.701 98.6562V98.6615V98.6776L239.747 133.341L239.217 150.67L238.632 167.998L238.949 150.659L239.318 133.33L240.176 98.6615V98.683L238.413 67.5735L237.576 52.0188L236.783 36.4587Z" fill="#EBEBEB"/>
<path d="M233.422 165.753L234.843 148.933L236.322 132.119C237.351 120.916 238.338 109.703 239.41 98.5061V98.5704L234.768 72.3922L232.479 59.2923L230.228 46.1925L232.704 59.2548L235.138 72.3278L239.924 98.4793V98.549C238.916 109.757 237.823 120.959 236.772 132.162L235.132 148.96L233.422 165.753Z" fill="#EBEBEB"/>
<path d="M243.14 97.2411H237.314V100.645H243.14V97.2411Z" fill="#DBDBDB"/>
<path d="M60.5036 40.4841H30.2411V77.1947H60.5036V40.4841Z" fill="#EBEBEB" fill-opacity="0.3"/>
<path d="M57.046 43.8341H33.6978V73.8447H57.046V43.8341Z" fill="white" fill-opacity="0.2"/>
<path d="M34.609 43.8341H33.6978V73.8447H34.609V43.8341Z" fill="#DBDBDB"/>
<path d="M61.4147 40.4841H60.5035V77.1947H61.4147V40.4841Z" fill="#DBDBDB"/>
<path d="M47.0284 47.972H41.5236V64.3736H47.0284V47.972Z" fill="#DBDBDB"/>
<path d="M54.0658 67.4395H38.8541V58.8635H54.0658V67.4395ZM39.3901 66.9035H53.5298V59.3995H39.3901V66.9035Z" fill="#EBEBEB"/>
<path d="M88.3649 86.0977H58.1023V122.808H88.3649V86.0977Z" fill="#EBEBEB"/>
<path d="M84.9072 89.4477H61.5591V119.458H84.9072V89.4477Z" fill="white"/>
<path d="M62.4703 89.4477H61.5591V119.458H62.4703V89.4477Z" fill="#DBDBDB"/>
<path d="M89.2759 86.0977H88.3647V122.808H89.2759V86.0977Z" fill="#DBDBDB"/>
<path d="M75.6882 97.209H70.9714V109.135H75.6882V97.209Z" fill="#EBEBEB"/>
<path d="M80.9356 112.941H67.7179V104.188H80.9356V112.941ZM68.2646 112.405H80.3996V104.724H68.2539L68.2646 112.405Z" fill="#DBDBDB"/>
<path d="M74.1392 252.794C102.789 252.794 126.013 250.569 126.013 247.825C126.013 245.081 102.789 242.856 74.1392 242.856C45.49 242.856 22.2652 245.081 22.2652 247.825C22.2652 250.569 45.49 252.794 74.1392 252.794Z" fill="#EBEBEB" fill-opacity="0.2"/>
<path d="M23.8249 236.585L51.37 236.456L78.915 236.408L134 236.317L189.084 236.408L216.629 236.456L244.175 236.585L216.629 236.719L189.084 236.767L134 236.853L78.915 236.767L51.37 236.719L23.8249 236.585Z" fill="#263238"/>
<path d="M218.479 188.736C218.479 188.736 213.585 181.232 202.624 182.685C192.209 184.073 185.729 202.319 195.822 205.535C205.915 208.751 205.733 191.277 209.758 188.693C212.722 186.801 216.64 187.638 218.479 188.736Z" fill="#DC0804"/>
<path d="M193.372 192.108C194.129 191.562 194.921 191.066 195.741 190.623C196.518 190.196 197.349 189.877 198.212 189.674C199.558 187.974 201.291 186.622 203.267 185.729L202.951 185.681C202.384 185.603 201.813 185.555 201.241 185.536C200.089 185.51 198.941 185.691 197.853 186.072C197.841 186.077 197.827 186.076 197.815 186.07C197.802 186.064 197.793 186.053 197.789 186.04C197.785 186.027 197.786 186.013 197.792 186.001C197.798 185.989 197.808 185.98 197.821 185.976C198.924 185.619 200.064 185.39 201.219 185.295C201.781 185.247 202.346 185.247 202.908 185.295C203.208 185.327 203.508 185.376 203.803 185.435L203.974 185.467C205.011 185.063 206.09 184.779 207.19 184.62L206.901 184.513C206.387 184.346 205.865 184.209 205.336 184.1C204.279 183.877 203.198 183.792 202.12 183.848C202.056 183.848 202.045 183.746 202.12 183.741C203.209 183.714 204.299 183.773 205.379 183.918C206.29 184.029 207.188 184.232 208.059 184.523C208.717 184.468 209.377 184.455 210.037 184.486C213.789 184.684 217.734 186.469 219.744 189.76C221.754 193.051 221.818 197.2 221.888 200.952C222.024 206.184 221.665 211.417 220.816 216.582C220.762 216.887 220.339 216.791 220.36 216.496C220.633 212.074 220.896 207.652 220.896 203.219C220.896 201.166 220.869 199.103 220.724 197.055C220.641 195.297 220.303 193.56 219.722 191.899C219.076 190.199 217.945 188.726 216.469 187.664C214.982 186.617 213.281 185.912 211.489 185.601C209.893 185.32 208.261 185.32 206.665 185.601C206.689 185.92 206.668 186.241 206.601 186.555C206.531 186.95 206.414 187.335 206.252 187.702C206.105 188.05 205.925 188.384 205.716 188.699C205.486 189.053 205.18 189.358 204.95 189.685C204.907 189.739 204.827 189.685 204.87 189.621C205.37 189.033 205.724 188.335 205.904 187.584C206.002 187.231 206.079 186.874 206.135 186.512C206.177 186.239 206.177 185.976 206.215 185.686C204.464 186.049 202.797 186.736 201.3 187.713C201.016 187.9 200.764 188.093 200.48 188.297C200.8 188.661 201.071 189.067 201.284 189.503C201.599 190.076 201.865 190.675 202.077 191.293C202.42 192.535 202.599 193.816 202.608 195.104C202.608 195.118 202.602 195.132 202.592 195.142C202.582 195.152 202.568 195.158 202.554 195.158C202.54 195.158 202.526 195.152 202.516 195.142C202.506 195.132 202.5 195.118 202.5 195.104C202.421 193.845 202.122 192.609 201.616 191.454C201.386 190.883 201.119 190.328 200.817 189.792C200.662 189.514 200.496 189.256 200.324 188.978C200.233 188.833 200.131 188.688 200.046 188.538C198.667 189.654 197.498 191.006 196.594 192.531C197.045 193.116 197.406 193.764 197.666 194.455C197.984 195.185 198.25 195.935 198.464 196.701C198.848 198.178 199.136 199.679 199.327 201.193C199.327 201.257 199.236 201.268 199.225 201.193C199.044 199.667 198.672 198.171 198.116 196.739C197.859 196.037 197.58 195.345 197.285 194.659C196.974 194.018 196.698 193.359 196.46 192.687C195.597 194.184 195.021 195.829 194.761 197.537C194.761 197.602 194.648 197.586 194.659 197.537C195.115 194.862 196.189 192.329 197.794 190.141C197.108 190.355 196.428 190.564 195.763 190.843C194.916 191.193 194.116 191.648 193.383 192.199C193.378 192.236 193.319 192.145 193.372 192.108Z" fill="#263238"/>
<path d="M201.203 193.249C201.423 194.321 201.739 195.393 201.922 196.503C202.119 197.563 202.177 198.644 202.093 199.719C202.093 199.746 202.045 199.746 202.045 199.719C201.959 197.548 201.643 195.391 201.102 193.287C201.099 193.28 201.098 193.273 201.098 193.266C201.099 193.259 201.1 193.252 201.103 193.245C201.106 193.239 201.11 193.233 201.116 193.228C201.121 193.223 201.127 193.22 201.134 193.217C201.14 193.215 201.148 193.214 201.155 193.214C201.162 193.214 201.169 193.216 201.175 193.219C201.182 193.222 201.188 193.226 201.192 193.231C201.197 193.237 201.201 193.243 201.203 193.249Z" fill="#263238"/>
<path d="M194.659 189.98C195.118 189.613 195.629 189.317 196.176 189.101C196.731 188.91 197.301 188.767 197.88 188.672C197.939 188.672 197.955 188.768 197.88 188.774C197.312 188.87 196.759 189.039 196.235 189.278C195.705 189.494 195.191 189.746 194.696 190.033C194.693 190.036 194.689 190.038 194.685 190.039C194.68 190.04 194.676 190.04 194.672 190.039C194.668 190.038 194.664 190.037 194.66 190.034C194.656 190.032 194.653 190.029 194.651 190.025C194.648 190.022 194.647 190.018 194.646 190.014C194.645 190.01 194.645 190.005 194.645 190.001C194.646 189.997 194.648 189.993 194.65 189.989C194.652 189.985 194.655 189.982 194.659 189.98Z" fill="#263238"/>
<path d="M213.178 180.01C213.178 180.01 212.149 167.409 202.779 163.325C194.954 159.91 190.451 168.685 196.004 174.087C200.464 178.44 207.657 176.478 213.178 180.01Z" fill="#DC0804"/>
<path d="M197.741 165.763C199.166 166.34 200.556 166.999 201.905 167.736C203.021 168.383 204.095 169.099 205.121 169.88C204.966 169.564 204.832 169.226 204.671 168.915C204.43 168.427 204.167 167.956 203.878 167.489C203.3 166.537 202.607 165.661 201.814 164.879C201.766 164.831 201.841 164.761 201.889 164.809C202.68 165.593 203.405 166.439 204.06 167.339C204.384 167.797 204.681 168.273 204.95 168.765C205.227 169.215 205.439 169.702 205.577 170.212L205.684 170.293C207.321 171.595 208.82 173.06 210.16 174.666C210.133 174.543 210.106 174.42 210.074 174.307C209.897 173.691 209.71 173.085 209.506 172.474C209.105 171.181 208.535 169.947 207.812 168.802C207.808 168.791 207.807 168.778 207.812 168.766C207.816 168.754 207.824 168.744 207.835 168.737C207.846 168.731 207.859 168.728 207.871 168.731C207.884 168.733 207.895 168.739 207.903 168.749C208.64 169.897 209.295 171.095 209.865 172.335C210.124 172.941 210.341 173.564 210.514 174.2C210.65 174.613 210.752 175.036 210.819 175.465C211.227 176.001 211.629 176.505 212.004 177.041C216.029 182.771 218.044 189.696 218.532 196.626C218.673 198.692 218.707 200.764 218.634 202.833C218.622 204.922 218.443 207.007 218.098 209.067C218.071 209.195 217.868 209.158 217.873 209.029C217.916 207.207 218.109 205.395 218.141 203.573C218.176 201.747 218.117 199.92 217.964 198.1C217.668 194.464 216.983 190.87 215.922 187.38C214.84 183.807 213.244 180.411 211.184 177.298C210.787 177.223 210.396 177.116 210.01 177.014C209.624 176.912 209.072 176.773 208.605 176.644C207.706 176.41 206.832 176.089 205.995 175.685C205.984 175.678 205.976 175.666 205.973 175.653C205.97 175.64 205.972 175.626 205.979 175.615C205.986 175.604 205.998 175.596 206.011 175.593C206.024 175.59 206.037 175.592 206.049 175.599C206.874 176.048 207.769 176.356 208.697 176.51C209.431 176.655 210.192 176.751 210.926 176.923C210.252 175.929 209.525 174.972 208.75 174.055C206.963 174.222 205.16 174.088 203.417 173.659C202.49 173.435 201.579 173.152 200.689 172.812C199.751 172.447 198.861 171.986 197.939 171.595C197.869 171.568 197.939 171.466 197.977 171.504C199.657 172.417 201.49 173.017 203.385 173.273C205.057 173.541 206.746 173.68 208.439 173.691C207.775 172.924 207.083 172.185 206.349 171.482C203.889 169.14 200.989 166.985 197.725 165.865C197.644 165.844 197.676 165.737 197.741 165.763Z" fill="#263238"/>
<path d="M205.363 165.801C205.785 166.335 206.17 166.897 206.515 167.484C206.862 168.103 207.139 168.759 207.34 169.44C207.34 169.44 207.314 169.472 207.303 169.44C206.987 168.824 206.724 168.181 206.408 167.57C206.1 166.961 205.724 166.389 205.288 165.865C205.25 165.822 205.325 165.753 205.363 165.801Z" fill="#263238"/>
<path d="M196.653 169.998C197.261 170.335 197.905 170.604 198.572 170.802C199.213 171.017 199.866 171.196 200.528 171.338C200.56 171.338 200.555 171.397 200.528 171.391C199.838 171.319 199.159 171.17 198.502 170.946C197.852 170.705 197.218 170.422 196.605 170.1C196.54 170.057 196.594 169.966 196.653 169.998Z" fill="#263238"/>
<path d="M219.947 178.156C220.006 178.692 221.362 173.578 229.284 169.044C236.483 164.916 245.069 154.175 238.016 147.395C232.318 141.906 217.315 153.832 219.947 178.156Z" fill="#DC0804"/>
<path d="M214.491 207.512C214.608 202.181 215.028 196.861 215.75 191.577C216.377 186.723 217.498 181.946 219.095 177.32C219.685 175.653 220.36 174.018 221.089 172.399C221.049 171.772 221.059 171.143 221.121 170.518C221.164 169.708 221.234 168.91 221.309 168.1C221.384 167.291 221.464 166.492 221.561 165.688C221.657 164.884 221.829 164.08 221.861 163.287C221.861 163.212 221.979 163.228 221.963 163.287C221.803 164.129 221.708 164.982 221.678 165.838C221.614 166.616 221.571 167.393 221.544 168.17C221.518 168.947 221.544 169.73 221.544 170.512C221.544 170.791 221.544 171.091 221.544 171.391C222.29 169.816 223.088 168.266 223.956 166.755C223.42 163.469 224.117 160.039 224.787 156.828C224.787 156.764 224.9 156.791 224.884 156.855C224.55 158.532 224.371 160.237 224.348 161.947C224.316 163.298 224.38 164.627 224.385 165.994C224.573 165.672 224.766 165.345 224.959 165.029C225.988 163.351 227.103 161.706 228.25 160.109C228.154 159.33 228.179 158.542 228.325 157.772C228.457 156.905 228.648 156.049 228.898 155.21C229.156 154.373 229.434 153.548 229.777 152.739C230.12 151.929 230.576 151.131 230.908 150.278C230.935 150.209 231.042 150.278 231 150.321C230.58 151.112 230.247 151.946 230.008 152.808C229.748 153.618 229.532 154.441 229.359 155.274C229.193 156.105 229.059 156.941 228.941 157.788C228.861 158.324 228.813 158.919 228.716 159.481C230.414 157.212 232.268 155.062 234.264 153.049C234.312 153.001 234.382 153.076 234.333 153.124C231.318 156.518 228.626 160.186 226.293 164.08C226.202 164.225 226.122 164.375 226.036 164.525C226.476 164.246 226.974 164.032 227.387 163.802C228.153 163.378 228.92 162.955 229.697 162.537L231.938 161.309C232.323 161.095 232.704 160.87 233.095 160.671C233.562 160.461 234.01 160.212 234.435 159.926C234.494 159.883 234.559 159.975 234.494 160.012C233.733 160.43 233.058 161.052 232.323 161.524C231.589 161.995 230.833 162.451 230.062 162.88C228.652 163.662 227.124 164.23 225.736 165.024C224.777 166.707 223.892 168.438 223.056 170.196C223.898 169.66 224.755 169.124 225.629 168.658C226.192 168.342 226.754 168.031 227.323 167.73C227.893 167.47 228.433 167.147 228.931 166.766C228.979 166.723 229.048 166.798 229 166.841C228.078 167.671 227.055 168.383 225.956 168.958C224.937 169.553 223.908 170.126 222.852 170.646C222.005 172.501 221.244 174.398 220.558 176.317C217.224 185.762 215.997 195.785 215.413 205.738C215.241 208.708 215.15 211.672 215.112 214.647C215.075 217.621 215.23 220.58 215.225 223.544C215.225 223.635 215.08 223.657 215.07 223.544C214.71 220.912 214.652 218.232 214.534 215.585C214.416 212.937 214.432 210.208 214.491 207.512Z" fill="#263238"/>
<path d="M228.872 164.761C230.318 164.124 231.723 163.397 233.079 162.585C234.456 161.811 235.791 160.964 237.078 160.05C237.078 160.05 237.126 160.05 237.105 160.082C235.891 161.066 234.609 161.961 233.267 162.762C231.864 163.549 230.412 164.245 228.92 164.847C228.872 164.879 228.823 164.788 228.872 164.761Z" fill="#263238"/>
<path d="M226.594 154.089C226.706 153.628 226.856 153.173 227.006 152.728C227 152.72 226.997 152.711 226.997 152.701C226.997 152.691 227 152.682 227.006 152.674C227.103 152.417 227.21 152.165 227.312 151.913L227.35 151.822C227.372 151.773 227.392 151.723 227.408 151.672C227.408 151.672 227.441 151.672 227.435 151.672C227.43 151.672 227.387 151.849 227.36 151.935C227.348 151.983 227.334 152.032 227.317 152.079C226.794 153.834 226.401 155.626 226.144 157.439C226.144 157.493 226.047 157.498 226.047 157.439C226.124 156.308 226.307 155.186 226.594 154.089Z" fill="#263238"/>
<path d="M218.521 191.802C221.282 183.226 227.521 178.134 235.545 179.313C243.569 180.493 246.292 191.052 240.932 194.568C235.572 198.084 228.695 190.998 225.43 189.808C222.166 188.618 218.521 191.802 218.521 191.802Z" fill="#DC0804"/>
<path d="M217.787 213.698C217.669 212.728 217.573 211.758 217.466 210.782C217.262 208.842 217.047 206.901 216.844 204.961C216.474 201.413 216.361 197.891 217.38 194.429C218.247 191.285 220.051 188.481 222.552 186.389C223.481 185.629 224.509 185 225.607 184.518C226.496 183.323 227.712 182.411 229.107 181.892C230.84 181.275 232.667 180.969 234.505 180.986C234.569 180.986 234.58 181.082 234.505 181.088C232.76 181.104 231.037 181.469 229.434 182.16C228.747 182.456 228.093 182.824 227.483 183.258C227.103 183.54 226.745 183.85 226.411 184.186C227.919 183.641 229.526 183.427 231.123 183.559C231.699 183.612 232.269 183.714 232.827 183.864C233.236 183.711 233.663 183.613 234.098 183.575C234.662 183.51 235.232 183.51 235.797 183.575C236.956 183.727 238.089 184.039 239.163 184.502C239.173 184.509 239.181 184.519 239.184 184.532C239.188 184.544 239.187 184.557 239.182 184.568C239.177 184.58 239.168 184.589 239.156 184.595C239.145 184.6 239.132 184.601 239.12 184.598C238.073 184.205 236.976 183.961 235.861 183.875C235.326 183.832 234.788 183.832 234.253 183.875C233.956 183.901 233.66 183.945 233.369 184.009C235.706 184.707 237.721 186.211 239.056 188.254C239.088 188.313 239.007 188.372 238.97 188.318C238.183 187.134 237.139 186.144 235.916 185.42C234.693 184.696 233.322 184.257 231.905 184.137C231.729 184.137 231.552 184.137 231.369 184.111C231.446 184.377 231.507 184.647 231.552 184.92C231.659 185.301 231.782 185.681 231.916 186.056C232.188 186.828 232.508 187.582 232.876 188.313C233.244 189.055 233.663 189.772 234.13 190.457C234.586 191.189 235.125 191.865 235.738 192.472C235.791 192.52 235.711 192.596 235.663 192.542C235.1 191.883 234.462 191.293 233.937 190.602C233.43 189.94 232.973 189.241 232.57 188.511C232.166 187.77 231.822 186.997 231.541 186.201C231.396 185.783 231.268 185.354 231.155 184.925C231.067 184.671 231.013 184.406 230.994 184.137C230.069 184.127 229.146 184.239 228.25 184.47C228.866 186.335 229.515 188.275 230.828 189.787C230.871 189.835 230.785 189.905 230.742 189.846C230.114 189.038 229.542 188.187 229.032 187.3C228.546 186.437 228.185 185.51 227.96 184.545C226.407 184.979 224.952 185.707 223.672 186.689C221.259 188.591 219.487 191.187 218.597 194.128C217.661 197.288 217.36 200.602 217.712 203.878C218.039 208.016 218.575 212.149 218.747 216.297C218.747 216.565 218.35 216.716 218.253 216.421C218.012 215.53 217.856 214.618 217.787 213.698Z" fill="#263238"/>
<path d="M222.976 185.686C223.189 185.338 223.448 185.021 223.748 184.743C224.026 184.429 224.321 184.13 224.632 183.848C225.24 183.286 225.94 182.831 226.701 182.503C226.76 182.476 226.803 182.572 226.738 182.599C225.971 182.911 225.279 183.382 224.707 183.982C224.414 184.271 224.135 184.572 223.871 184.882C223.639 185.203 223.375 185.499 223.083 185.767C223.051 185.81 222.976 185.751 222.976 185.686Z" fill="#263238"/>
<path d="M235.866 186.817C236.626 187.474 237.342 188.18 238.01 188.929C238.663 189.685 239.236 190.506 239.72 191.379C239.72 191.406 239.72 191.427 239.677 191.406C238.534 189.788 237.244 188.279 235.823 186.898C235.754 186.855 235.84 186.775 235.866 186.817Z" fill="#263238"/>
<path d="M227.36 187.219C227.513 187.709 227.731 188.176 228.009 188.608C228.286 189.025 228.596 189.419 228.936 189.787C228.936 189.814 228.936 189.846 228.893 189.83C228.118 189.147 227.559 188.253 227.285 187.257C227.264 187.198 227.339 187.155 227.36 187.219Z" fill="#263238"/>
<path d="M206.124 209.426L206.687 216.126L208.418 236.564H226.958L228.684 216.126L229.252 209.426H206.124Z" fill="#455A64"/>
<path d="M206.124 209.426L206.687 216.126H228.684L229.252 209.426H206.124Z" fill="#263238"/>
<path d="M204.301 213.167H231.069V206.741H204.301V213.167Z" fill="#455A64"/>
<path d="M179.297 31.147H88.7132C87.4978 31.1575 86.2964 31.4074 85.1776 31.8824C84.0589 32.3574 83.0447 33.0482 82.193 33.9153C81.3413 34.7824 80.6688 35.8088 80.214 36.9359C79.7592 38.063 79.5309 39.2687 79.5422 40.4841V227.012C79.528 228.228 79.7535 229.434 80.2056 230.563C80.6578 231.691 81.3278 232.72 82.1774 233.589C83.0271 234.459 84.0397 235.152 85.1574 235.631C86.2751 236.109 87.4761 236.362 88.6917 236.376H179.276C181.731 236.355 184.078 235.359 185.8 233.608C187.521 231.857 188.477 229.494 188.457 227.039V40.5109C188.472 39.2944 188.246 38.087 187.793 36.9578C187.34 35.8286 186.669 34.7997 185.818 33.9301C184.968 33.0604 183.954 32.3669 182.835 31.8894C181.716 31.4118 180.514 31.1596 179.297 31.147ZM182.744 221.25C182.744 226.16 179.067 230.132 174.532 230.132H93.4728C88.9222 230.132 85.2506 226.16 85.2506 221.25V47.5539C85.2506 37.5522 88.9222 37.0644 93.4728 37.0644H109.708C110.652 37.0644 111.423 38.1364 111.423 39.4657V40.0392C111.423 43.1534 113.128 43.1641 115.224 43.1641H152.744C154.888 43.1641 156.544 43.1641 156.544 40.0392V39.4657C156.544 38.1364 157.305 37.0644 158.27 37.0644H174.505C179.04 37.0644 182.717 38.3937 182.717 47.5539L182.744 221.25Z" fill="#263238"/>
<path d="M139.119 39.2727H128.876C128.708 39.2727 128.547 39.2061 128.428 39.0875C128.31 38.9689 128.243 38.808 128.243 38.6402C128.243 38.4725 128.31 38.3116 128.428 38.193C128.547 38.0744 128.708 38.0078 128.876 38.0078H139.119C139.286 38.0078 139.447 38.0744 139.566 38.193C139.684 38.3116 139.751 38.4725 139.751 38.6402C139.751 38.808 139.684 38.9689 139.566 39.0875C139.447 39.2061 139.286 39.2727 139.119 39.2727Z" fill="white"/>
<path d="M182.744 47.5539V221.25C182.744 226.16 179.067 230.132 174.532 230.132H93.4728C88.9221 230.132 85.2505 226.16 85.2505 221.25V47.5539C85.2505 37.5522 88.9221 37.0644 93.4728 37.0644H109.708C110.652 37.0644 111.423 38.1364 111.423 39.4657V40.0392C111.423 43.1534 113.128 43.1641 115.224 43.1641H152.744C154.888 43.1641 156.544 43.1641 156.544 40.0392V39.4657C156.544 38.1364 157.305 37.0644 158.27 37.0644H174.505C179.067 37.0644 182.744 38.3937 182.744 47.5539Z" fill="white"/>
<path d="M180.01 38.592H156.694C156.946 37.7076 157.563 37.0805 158.302 37.0805H174.548C176.639 37.059 178.558 37.3485 180.01 38.592Z" fill="#DBDBDB"/>
<path d="M85.2505 212.69V215H93.3227V212.69H85.2505ZM182.744 69.68L156.512 97.477H144.441V74.504H149.238V72.1778H142.115V97.4716H129.031V43.1641H124.389V59.437H85.2613V64.0788H124.389V97.477H86.4726V106.589H85.2505V108.915H86.4726V143.428L93.4406 159.39H85.2505V164.032H95.4828L100.945 176.516C97.5631 177.981 94.7686 180.535 93.0059 183.772C91.2432 187.008 90.6133 190.741 91.2166 194.377C91.8199 198.013 93.6217 201.342 96.3352 203.836C99.0488 206.33 102.518 207.845 106.192 208.14L117.55 226.728L114.125 230.153H125.091L111.402 207.791C113.685 207.242 115.824 206.214 117.679 204.773C119.533 203.333 121.059 201.514 122.155 199.438C123.252 197.362 123.893 195.076 124.037 192.733C124.181 190.389 123.824 188.042 122.99 185.847L155.386 170.437H182.722V165.801H169.767L142.576 136.235H182.733V133.914H140.432L111.188 102.119H158.484L174.468 85.1704L182.722 93.4248V86.8642L177.662 81.799L182.722 76.439L182.744 69.68ZM107.532 203.594C105.178 203.595 102.877 202.898 100.92 201.591C98.9622 200.285 97.4363 198.427 96.5348 196.252C95.6334 194.078 95.397 191.685 95.8555 189.377C96.314 187.068 97.4469 184.948 99.1108 183.283C100.775 181.618 102.895 180.484 105.203 180.025C107.512 179.565 109.904 179.801 112.079 180.701C114.254 181.602 116.112 183.127 117.42 185.084C118.728 187.041 119.426 189.341 119.426 191.695C119.423 194.849 118.169 197.873 115.939 200.104C113.71 202.335 110.686 203.59 107.532 203.594ZM163.48 165.779H154.368L120.744 181.758C119.202 179.711 117.207 178.051 114.914 176.907C112.621 175.763 110.094 175.166 107.532 175.165C106.842 175.167 106.153 175.21 105.468 175.293L91.1197 142.463V102.119H104.895L163.48 165.779ZM166.932 230.132H170.217L182.76 217.584V214.298L166.932 230.132Z" fill="#EBEBEB"/>
<path d="M101.84 105.635H95.0916V112.383H101.84V105.635Z" fill="#DBDBDB"/>
<path d="M165.19 131.502V118.477H160.452V113.032H152.106V131.502H165.19Z" fill="#DBDBDB"/>
<path d="M142.05 43.1641V56.2639H134.986V48.2882H131.164V43.1641H142.05Z" fill="#DBDBDB"/>
<path d="M182.744 47.5486V52.067H176.848V40.6985H181.597C182.326 42.2529 182.744 44.4558 182.744 47.5486Z" fill="#DBDBDB"/>
<path d="M146.269 95.5098V85.8243H164.418L154.614 95.6278L146.269 95.5098Z" fill="#DBDBDB"/>
<path d="M140.287 86.5104H131.17V95.6278H140.287V86.5104Z" fill="#DBDBDB"/>
<path d="M122.208 65.8958H111.225V75.9994H122.208V65.8958Z" fill="#DBDBDB"/>
<path d="M122.213 77.9826V95.6278H108.776L100.21 87.0625V77.9826H122.213Z" fill="#DBDBDB"/>
<path d="M97.7876 89.0082L104.536 95.7564H86.5263V89.0082H97.7876Z" fill="#DBDBDB"/>
<path d="M96.8228 174.27H85.2505V166.144H93.5478L96.8228 174.27Z" fill="#DBDBDB"/>
<path d="M93.6711 205.588V209.49H85.2505V192.135H87.55C88.1919 197.132 90.325 201.821 93.6711 205.588Z" fill="#DBDBDB"/>
<path d="M134 171.874L126.941 156.625H118.365L103.678 163.437L107.516 171.815H107.548C112.763 171.81 117.769 173.859 121.484 177.518L134 171.874Z" fill="#DBDBDB"/>
<path d="M182.744 152.883V163.008H171.702L162.387 152.883H182.744Z" fill="#DBDBDB"/>
<path d="M113.391 225.854L109.349 230.142H93.4677C92.8776 230.14 92.2897 230.072 91.7149 229.939V225.115H98.5864V214.48L103.759 210.128L113.391 225.854Z" fill="#DBDBDB"/>
<path d="M146.092 207.968L132.156 193.442L126.796 197.618C126.012 200.153 124.737 202.509 123.041 204.551C121.346 206.593 119.265 208.28 116.917 209.517L128.565 228.556L146.092 207.968Z" fill="#DBDBDB"/>
<path d="M130.918 187.059L155.386 174.961H167.591V196.24L148.563 205.636L130.918 187.059Z" fill="#DBDBDB"/>
<path d="M182.733 221.641C182.567 225.929 179.581 229.424 175.738 230.035H174.339L182.733 221.641Z" fill="#DBDBDB"/>
<path d="M95.0916 115.197V141.938L102.553 160.194L116.167 153.446H147.925L112.313 115.197H95.0916Z" fill="#DC0804" fill-opacity="0.2"/>
<path d="M172.538 76.9482H146.269V83.5302H166.331L172.538 76.9482Z" fill="#DBDBDB"/>
<path d="M89.9405 157.214H85.2505V146.349L89.9405 157.214Z" fill="#DBDBDB"/>
<path d="M182.744 174.961H170.973V188.876H182.744V174.961Z" fill="#DBDBDB"/>
<path d="M182.744 191.046H170.973V195.929H182.744V191.046Z" fill="#DBDBDB"/>
<path d="M168.047 225.42L163.335 230.132H132.403L148.777 210.133L168.047 225.42Z" fill="#DBDBDB"/>
<path d="M169.735 223.121L177.684 215.493L168.041 207.1V199.553L151.05 208.209L169.735 223.121Z" fill="#DC0804" fill-opacity="0.2"/>
<path d="M182.744 198.084V209.919L179.592 212.883L170.973 205.636V198.084H182.744Z" fill="#DBDBDB"/>
<path d="M88.2735 217.654V228.132C87.311 227.265 86.5437 226.202 86.0226 225.016C85.5014 223.83 85.2382 222.546 85.2505 221.25V217.654H88.2735Z" fill="#DBDBDB"/>
<path d="M95.81 218.752H91.7149V222.847H95.81V218.752Z" fill="#DBDBDB"/>
<path d="M121.506 43.1641V56.6552H95.5311V41.213L100.05 37.059H109.698C110.636 37.059 111.407 38.131 111.407 39.4657V40.0392C111.407 43.1534 113.117 43.1641 115.208 43.1641H121.506Z" fill="#DBDBDB"/>
<path d="M93.3334 48.3686H85.2505V56.6445H93.3334V48.3686Z" fill="#DBDBDB"/>
<path d="M93.3336 41.6043V46.23H85.2936C85.3208 44.6675 85.5386 43.1141 85.9422 41.6043H93.3336Z" fill="#DBDBDB"/>
<path d="M97.611 37.059L94.7541 39.739H86.7141C88.1935 37.2466 90.6698 37.059 93.4731 37.059H97.611Z" fill="#DBDBDB"/>
<path d="M149.421 139.044L160.451 150.627H170.973V139.044H149.421Z" fill="#DBDBDB"/>
<path d="M182.744 145.304H173.16V150.632H182.744V145.304Z" fill="#DBDBDB"/>
<path d="M178.793 139.044H173.16V143.884H178.793V139.044Z" fill="#DBDBDB"/>
<path d="M182.744 139.044H180.198V143.884H182.744V139.044Z" fill="#DBDBDB"/>
<path d="M130.248 156.625H147.925V165.077L136.621 170.207L130.248 156.625Z" fill="#DBDBDB"/>
<path d="M107.537 199.698C111.919 199.698 115.47 196.146 115.47 191.765C115.47 187.384 111.919 183.832 107.537 183.832C103.156 183.832 99.6047 187.384 99.6047 191.765C99.6047 196.146 103.156 199.698 107.537 199.698Z" fill="#DC0804" fill-opacity="0.2"/>
<path d="M89.4957 65.8958H85.2505V71.9902H89.4957V65.8958Z" fill="#DBDBDB"/>
<path d="M97.5893 86.8106V65.9012H91.1145V82.7102H86.5263V86.8106H97.5893Z" fill="#DBDBDB"/>
<path d="M109.381 65.8958H100.21V75.4366H109.381V65.8958Z" fill="#DBDBDB"/>
<path d="M89.4957 73.164H85.2505V80.8663H89.4957V73.164Z" fill="#DBDBDB"/>
<path d="M180.787 118.477H167.162V131.508H180.787V118.477Z" fill="#DBDBDB"/>
<path d="M117.411 104.445L131.625 119.914H149.469V104.445H117.411Z" fill="#DBDBDB"/>
<path d="M133.652 121.699L142.673 131.508H149.421V121.699H133.652Z" fill="#DBDBDB"/>
<path d="M160.446 104.445H152.106V110.904H160.446V104.445Z" fill="#DBDBDB"/>
<path d="M180.793 110.636V96.1102L174.2 89.0135L162.708 101.336V115.428H176.333V110.636H180.793Z" fill="#DC0804" fill-opacity="0.2"/>
<path d="M182.744 80.0623V83.959L180.862 82.1152L182.744 80.0623Z" fill="#DBDBDB"/>
<path d="M182.744 54.1842V66.1638L174.832 74.8524H164.418V54.1842H182.744Z" fill="#DBDBDB"/>
<path d="M162.001 61.7526H151.865V74.8524H162.001V61.7526Z" fill="#DC0804" fill-opacity="0.2"/>
<path d="M174.832 40.6985V52.067H161.995V60.107H151.865V43.1641H152.76C154.706 43.1641 156.298 43.1641 156.512 40.6985H174.832Z" fill="#DBDBDB"/>
<path d="M150.557 43.1641H143.283V51.7937H150.557V43.1641Z" fill="#DBDBDB"/>
<path d="M150.562 57.679H131.17V67.2144H150.562V57.679Z" fill="#DBDBDB"/>
<path d="M150.562 53.1712H143.283V56.2639H150.562V53.1712Z" fill="#DBDBDB"/>
<path d="M140.287 84.688H134.986L131.17 81.0646V70.5269H140.287V84.688Z" fill="#DBDBDB"/>
<path d="M106.905 40.9665C106.851 41.0156 106.799 41.0675 106.75 41.1219L106.658 41.2077C106.257 40.8084 105.713 40.5842 105.147 40.5842C104.58 40.5842 104.037 40.8084 103.635 41.2077L103.55 41.1166L103.394 40.9611L103.592 40.7842C103.735 40.6705 103.889 40.5734 104.053 40.4948C104.245 40.3983 104.449 40.3297 104.659 40.2911C104.76 40.2716 104.862 40.2573 104.965 40.2482H105.233H105.436C105.62 40.2723 105.799 40.3172 105.972 40.3822C106.104 40.4302 106.231 40.4894 106.353 40.5591C106.48 40.632 106.6 40.7163 106.712 40.811L106.878 40.9611L106.905 40.9665Z" fill="#A6A6A6"/>
<path d="M104.128 41.7008L103.882 41.4542C104.154 41.1813 104.508 41.0044 104.89 40.9504C105.164 40.9077 105.445 40.9311 105.709 41.0187C105.973 41.1063 106.212 41.2556 106.406 41.4542C106.326 41.5346 106.246 41.6204 106.16 41.7008C106.028 41.5665 105.87 41.4603 105.696 41.3884C105.522 41.3166 105.335 41.2806 105.147 41.2827C104.958 41.2811 104.77 41.3173 104.596 41.3891C104.421 41.4609 104.262 41.5669 104.128 41.7008Z" fill="#A6A6A6"/>
<path d="M105.914 41.9474L105.667 42.1939C105.596 42.1246 105.512 42.0699 105.42 42.0331C105.328 41.9963 105.23 41.9781 105.131 41.9795C105.031 41.9776 104.932 41.9961 104.84 42.0339C104.748 42.0717 104.665 42.128 104.595 42.1993L104.348 41.9527C104.448 41.8453 104.569 41.7595 104.704 41.7006C104.838 41.6418 104.983 41.6112 105.13 41.6107C105.277 41.6102 105.422 41.6398 105.557 41.6977C105.691 41.7556 105.813 41.8406 105.914 41.9474Z" fill="#A6A6A6"/>
<path d="M105.367 42.419C105.367 42.4483 105.362 42.4775 105.352 42.5048C105.341 42.5321 105.325 42.5569 105.304 42.5779C105.284 42.5989 105.259 42.6156 105.232 42.6269C105.205 42.6383 105.176 42.6442 105.147 42.6442C105.117 42.6442 105.088 42.6383 105.061 42.627C105.034 42.6157 105.009 42.5991 104.988 42.5782C104.967 42.5573 104.95 42.5325 104.939 42.5052C104.928 42.4779 104.922 42.4486 104.922 42.419C104.922 42.3897 104.928 42.3607 104.939 42.3337C104.95 42.3067 104.967 42.2822 104.988 42.2617C105.009 42.2412 105.034 42.2252 105.061 42.2144C105.089 42.2037 105.118 42.1986 105.147 42.1993C105.205 42.1993 105.261 42.2224 105.302 42.2636C105.344 42.3049 105.367 42.3608 105.367 42.419Z" fill="#A6A6A6"/>
<path d="M91.6023 41.4382C91.6023 41.3099 91.6404 41.1845 91.7116 41.0778C91.7829 40.9712 91.8842 40.8881 92.0027 40.839C92.1212 40.7899 92.2516 40.777 92.3774 40.8021C92.5032 40.8271 92.6188 40.8889 92.7095 40.9796C92.8002 41.0703 92.862 41.1858 92.887 41.3116C92.912 41.4374 92.8992 41.5678 92.8501 41.6864C92.801 41.8049 92.7179 41.9062 92.6112 41.9774C92.5045 42.0487 92.3792 42.0867 92.2509 42.0867C92.1655 42.0874 92.0809 42.0711 92.0018 42.0388C91.9228 42.0065 91.8511 41.9587 91.7907 41.8984C91.7303 41.838 91.6826 41.7662 91.6502 41.6872C91.6179 41.6082 91.6016 41.5235 91.6023 41.4382Z" fill="#A6A6A6"/>
<path d="M93.6391 41.4382C93.6391 41.3099 93.6771 41.1845 93.7484 41.0778C93.8197 40.9712 93.921 40.8881 94.0395 40.839C94.158 40.7899 94.2884 40.777 94.4142 40.8021C94.54 40.8271 94.6555 40.8889 94.7462 40.9796C94.837 41.0703 94.8987 41.1858 94.9238 41.3116C94.9488 41.4374 94.9359 41.5678 94.8868 41.6864C94.8378 41.8049 94.7546 41.9062 94.648 41.9774C94.5413 42.0487 94.4159 42.0867 94.2877 42.0867C94.2023 42.0874 94.1176 42.0711 94.0386 42.0388C93.9596 42.0065 93.8878 41.9587 93.8275 41.8984C93.7671 41.838 93.7193 41.7662 93.687 41.6872C93.6547 41.6082 93.6384 41.5235 93.6391 41.4382Z" fill="#A6A6A6"/>
<path d="M95.6759 41.4382C95.6759 41.3097 95.714 41.1841 95.7855 41.0773C95.857 40.9705 95.9587 40.8874 96.0775 40.8385C96.1963 40.7895 96.327 40.777 96.4529 40.8025C96.5789 40.8279 96.6944 40.8902 96.7849 40.9815C96.8754 41.0727 96.9367 41.1888 96.9612 41.3149C96.9856 41.4411 96.972 41.5717 96.9221 41.6901C96.8721 41.8085 96.7882 41.9094 96.6808 41.98C96.5735 42.0506 96.4476 42.0878 96.3191 42.0867C96.2341 42.0867 96.1501 42.0699 96.0717 42.0372C95.9933 42.0046 95.9221 41.9567 95.8623 41.8964C95.8025 41.8361 95.7553 41.7646 95.7233 41.6859C95.6913 41.6073 95.6752 41.5231 95.6759 41.4382Z" fill="#A6A6A6"/>
<path d="M97.7126 41.4382C97.7126 41.3097 97.7508 41.1841 97.8223 41.0773C97.8938 40.9705 97.9954 40.8874 98.1142 40.8385C98.2331 40.7895 98.3637 40.777 98.4897 40.8025C98.6157 40.8279 98.7312 40.8902 98.8217 40.9815C98.9122 41.0727 98.9735 41.1888 98.9979 41.3149C99.0223 41.4411 99.0087 41.5717 98.9588 41.6901C98.9089 41.8085 98.825 41.9094 98.7176 41.98C98.6102 42.0506 98.4843 42.0878 98.3558 42.0867C98.2709 42.0867 98.1868 42.0699 98.1084 42.0372C98.0301 42.0046 97.9589 41.9567 97.8991 41.8964C97.8393 41.8361 97.7921 41.7646 97.76 41.6859C97.728 41.6073 97.7119 41.5231 97.7126 41.4382Z" fill="#A6A6A6"/>
<path d="M99.7443 41.4382C99.7443 41.3099 99.7823 41.1845 99.8536 41.0778C99.9248 40.9712 100.026 40.8881 100.145 40.839C100.263 40.7899 100.394 40.777 100.519 40.8021C100.645 40.8271 100.761 40.8889 100.851 40.9796C100.942 41.0703 101.004 41.1858 101.029 41.3116C101.054 41.4374 101.041 41.5678 100.992 41.6864C100.943 41.8049 100.86 41.9062 100.753 41.9774C100.646 42.0487 100.521 42.0867 100.393 42.0867C100.307 42.0874 100.223 42.0711 100.144 42.0388C100.065 42.0065 99.993 41.9587 99.9326 41.8984C99.8723 41.838 99.8245 41.7662 99.7922 41.6872C99.7598 41.6082 99.7435 41.5235 99.7443 41.4382Z" fill="#A6A6A6"/>
<path d="M175.293 40.5484H170.303V42.7192H175.293V40.5484Z" fill="#A6A6A6"/>
<path d="M175.433 42.8478H170.169V40.4144H175.433V42.8478ZM170.437 42.5798H175.165V40.6824H170.448L170.437 42.5798Z" fill="white"/>
<path d="M174.001 40.8271H170.609V42.4351H174.001V40.8271Z" fill="#A6A6A6"/>
<path d="M175.899 40.9772H175.433V42.2797H175.899V40.9772Z" fill="#A6A6A6"/>
<path d="M138.577 176.516L138.143 175.54L156.164 167.532H167.323L104.879 99.353H126.244V59.2173H127.316V100.425H107.312L169.756 168.604H156.394L138.577 176.516Z" fill="#DC0804"/>
<path d="M130.403 52.8978C130.248 51.0862 128.972 49.312 126.78 49.312C124.588 49.312 123.344 51.113 123.162 52.9246C122.889 55.7172 124.77 58.2525 126.78 60.5626C128.795 58.2257 130.682 55.6904 130.403 52.8978ZM126.78 54.9078C126.388 54.9068 126.005 54.7896 125.68 54.571C125.354 54.3524 125.101 54.0423 124.952 53.6799C124.802 53.3174 124.764 52.9188 124.841 52.5345C124.918 52.1501 125.107 51.7972 125.385 51.5204C125.663 51.2436 126.016 51.0553 126.4 50.9792C126.785 50.9031 127.184 50.9427 127.546 51.0929C127.908 51.2432 128.217 51.4974 128.435 51.8234C128.652 52.1494 128.769 52.5326 128.769 52.9246C128.769 53.1857 128.718 53.4444 128.619 53.6857C128.519 53.9269 128.372 54.1461 128.187 54.3305C128.003 54.5148 127.783 54.6608 127.541 54.7599C127.3 54.859 127.041 54.9093 126.78 54.9078Z" fill="#DC0804"/>
<path d="M135.892 182.996L135.844 177.437L131.368 174.141L142.313 174.28L135.892 182.996Z" fill="#37474F"/>
<path d="M118.992 225.034L107.2 205.202L108.047 205.122C112.392 204.443 116.31 202.121 118.992 198.636C123.328 192.917 119.485 184.781 119.447 184.7L119.206 184.212L136.61 176.258L137.055 177.234L120.637 184.738C121.452 186.689 123.987 193.85 119.844 199.29C117.151 202.806 113.263 205.212 108.915 206.054L119.876 224.488L118.992 225.034Z" fill="#37474F"/>
<path d="M123.049 218.784C122.867 216.973 121.618 215.172 119.426 215.172C117.234 215.172 115.99 216.973 115.808 218.784C115.535 221.577 117.416 224.112 119.426 226.422C121.441 224.112 123.328 221.577 123.049 218.784ZM119.426 220.794C119.034 220.793 118.651 220.676 118.326 220.458C118 220.239 117.747 219.929 117.598 219.566C117.448 219.204 117.41 218.805 117.487 218.421C117.564 218.037 117.753 217.684 118.031 217.407C118.309 217.13 118.662 216.942 119.047 216.866C119.431 216.79 119.83 216.829 120.192 216.98C120.554 217.13 120.863 217.384 121.081 217.71C121.298 218.036 121.415 218.419 121.415 218.811C121.415 219.072 121.364 219.331 121.265 219.572C121.165 219.814 121.018 220.033 120.833 220.217C120.649 220.401 120.429 220.547 120.188 220.646C119.946 220.746 119.687 220.796 119.426 220.794Z" fill="#DC0804"/>
<path d="M200.93 154.631C200.932 157.867 199.947 161.027 198.106 163.689C196.265 166.35 193.656 168.387 190.628 169.528C187.599 170.668 184.295 170.858 181.155 170.071C178.016 169.285 175.191 167.559 173.058 165.126H142.142L137.816 173.128L133.491 165.126H129.54V144.136H173.064C175.198 141.705 178.023 139.982 181.162 139.197C184.301 138.412 187.604 138.603 190.632 139.744C193.66 140.884 196.268 142.921 198.109 145.581C199.949 148.242 200.936 151.401 200.936 154.636L200.93 154.631Z" fill="white"/>
<path d="M200.93 154.631C200.91 156.238 200.672 157.836 200.223 159.38C199.727 160.901 199.02 162.344 198.122 163.668C196.273 166.338 193.656 168.383 190.618 169.531C190.244 169.683 189.863 169.815 189.476 169.928L188.307 170.228C187.916 170.309 187.514 170.357 187.117 170.427C186.72 170.491 186.319 170.528 185.917 170.539C184.305 170.654 182.686 170.511 181.12 170.116C177.961 169.333 175.115 167.608 172.962 165.168L173.042 165.206L142.12 165.292L142.286 165.19L137.998 173.203L137.811 173.557L137.623 173.203L133.276 165.211L133.485 165.34H129.535H129.283V165.088C129.283 161.588 129.283 158.093 129.283 154.593L129.315 144.098V143.873H129.54L173.064 143.991L172.956 144.098V144.061L172.983 144.029C175.149 141.6 178.004 139.889 181.168 139.124C182.734 138.729 184.354 138.586 185.965 138.701C186.367 138.711 186.768 138.749 187.166 138.813C187.562 138.883 187.964 138.931 188.356 139.012L189.524 139.312C189.911 139.425 190.292 139.557 190.666 139.708C193.704 140.855 196.321 142.898 198.17 145.567C199.067 146.901 199.774 148.353 200.271 149.882C200.704 151.428 200.926 153.025 200.93 154.631ZM200.93 154.631C200.901 153.025 200.654 151.431 200.196 149.892C199.688 148.369 198.966 146.925 198.052 145.604C196.207 142.959 193.601 140.939 190.58 139.81C190.211 139.662 189.833 139.535 189.449 139.43L188.286 139.135C187.895 139.054 187.493 139.012 187.101 138.947C186.706 138.882 186.307 138.846 185.906 138.84C184.31 138.734 182.707 138.882 181.157 139.28C178.047 140.065 175.247 141.775 173.128 144.184L173.155 144.114V144.222H173.047L129.524 144.339L129.749 144.114L129.782 154.609C129.782 158.109 129.782 161.604 129.782 165.104L129.53 164.852H133.48H133.625L133.689 164.981L137.977 172.994H137.602L141.949 165.002L142.002 164.9H142.115L173.037 164.986H173.128L173.16 165.024C175.275 167.448 178.08 169.169 181.2 169.955C182.749 170.357 184.352 170.507 185.949 170.4C186.35 170.394 186.749 170.358 187.144 170.293C187.536 170.234 187.938 170.185 188.329 170.11L189.487 169.81C189.873 169.706 190.252 169.579 190.623 169.43C193.645 168.301 196.253 166.281 198.1 163.635C199.004 162.313 199.716 160.869 200.217 159.347C200.666 157.815 200.906 156.228 200.93 154.631Z" fill="#263238"/>
<path d="M191.609 166.844C198.358 163.205 200.879 154.785 197.241 148.036C193.602 141.287 185.182 138.766 178.433 142.404C171.684 146.043 169.163 154.463 172.801 161.212C176.44 167.961 184.86 170.482 191.609 166.844Z" fill="white"/>
<path d="M141.279 152.621C141.097 150.809 139.848 149.008 137.655 149.008C135.463 149.008 134.22 150.809 134.037 152.621C133.764 155.413 135.645 157.948 137.655 160.259C139.671 157.948 141.557 155.44 141.279 152.621ZM137.655 154.631C137.263 154.63 136.88 154.512 136.555 154.294C136.23 154.075 135.976 153.765 135.827 153.403C135.678 153.04 135.639 152.642 135.716 152.257C135.793 151.873 135.983 151.52 136.26 151.243C136.538 150.966 136.891 150.778 137.276 150.702C137.66 150.626 138.059 150.665 138.421 150.816C138.783 150.966 139.092 151.22 139.31 151.546C139.528 151.872 139.644 152.255 139.644 152.647C139.645 152.909 139.594 153.167 139.494 153.408C139.394 153.65 139.248 153.869 139.063 154.053C138.878 154.238 138.658 154.384 138.417 154.483C138.175 154.582 137.917 154.632 137.655 154.631Z" fill="#DC0804"/>
<path d="M167.162 150.67H145.229V151.329H167.162V150.67Z" fill="#A6A6A6"/>
<path d="M163.716 152.503H145.229V153.162H163.716V152.503Z" fill="#A6A6A6"/>
<path d="M166.079 154.336H145.229V154.995H166.079V154.336Z" fill="#A6A6A6"/>
<path d="M157.68 156.169H145.229V156.828H157.68V156.169Z" fill="#A6A6A6"/>
<path d="M194.423 164.82C191.862 167.188 188.504 168.507 185.016 168.513C184.388 168.513 183.761 168.466 183.14 168.374C182.727 168.327 182.317 168.255 181.913 168.159C182.417 166.535 183.044 164.951 183.789 163.421C183.848 163.292 183.923 163.169 183.982 163.062C184.079 162.901 184.185 162.745 184.298 162.596C184.834 161.931 186.174 161.604 187.637 161.577C188.273 161.563 188.909 161.597 189.54 161.679C190.047 161.74 190.547 161.844 191.036 161.99L191.127 162.017H191.18L191.529 162.145L191.834 162.285C191.847 162.281 191.86 162.281 191.872 162.285C192.042 162.363 192.203 162.462 192.349 162.58C192.445 162.66 192.553 162.751 192.654 162.848C193.308 163.445 193.9 164.106 194.423 164.82Z" fill="#EBEBEB"/>
<path d="M194.653 164.606C194.58 164.681 194.504 164.753 194.423 164.82C193.357 165.812 192.139 166.626 190.816 167.232C191.212 164.552 191.518 162.478 191.561 162.14C191.563 162.122 191.563 162.104 191.561 162.086C191.662 162.146 191.761 162.21 191.856 162.279C191.868 162.276 191.881 162.276 191.893 162.279C192.081 162.403 192.349 162.59 192.676 162.842C193.375 163.383 194.036 163.972 194.653 164.606Z" fill="#37474F"/>
<path d="M184.094 162.408L183.992 163.057C183.992 163.217 183.933 163.405 183.907 163.593C183.88 163.78 183.853 163.925 183.816 164.129C183.644 165.201 183.403 166.728 183.14 168.368C182.727 168.321 182.317 168.25 181.913 168.154L181.768 168.122C182.286 166.337 182.949 164.599 183.751 162.923C183.854 162.744 183.969 162.572 184.094 162.408Z" fill="#37474F"/>
<path d="M185.729 167.184C187.337 167.366 190.36 165.142 191.202 162.783C191.261 162.622 190.784 161.089 190.296 159.197C190.001 158.05 189.701 156.764 189.513 155.574C189.476 155.327 182.32 158.57 182.32 158.57C182.982 159.994 183.468 161.493 183.767 163.035C183.783 163.201 183.783 163.368 183.767 163.534V163.614C183.794 164.552 184.019 166.985 185.729 167.184Z" fill="#D3766A"/>
<path d="M183.794 163.534C183.791 163.56 183.791 163.587 183.794 163.614C184.053 163.606 184.311 163.579 184.566 163.534C188.95 162.74 189.24 157.048 189.24 155.617C187.943 156.019 182.315 158.57 182.315 158.57C182.978 159.996 183.464 161.497 183.762 163.04C183.786 163.204 183.796 163.369 183.794 163.534Z" fill="#263238"/>
<path d="M189.433 146.071C190.58 148.633 190.14 156.501 188.463 158.458C186.029 161.288 181.564 162.092 179.034 159.058C176.585 156.115 177.335 145.867 179.254 144.05C182.084 141.354 187.734 142.287 189.433 146.071Z" fill="#D3766A"/>
<path d="M183.982 151.624C183.982 151.624 184.019 151.65 184.019 151.672C183.977 152.208 184.019 152.814 184.486 153.012C184.486 153.012 184.486 153.049 184.486 153.044C183.896 152.932 183.848 152.117 183.982 151.624Z" fill="#263238"/>
<path d="M184.48 151.093C185.338 151.093 185.317 152.787 184.523 152.803C183.73 152.819 183.762 151.109 184.48 151.093Z" fill="#263238"/>
<path d="M180.734 151.688C180.734 151.688 180.691 151.688 180.691 151.736C180.691 152.272 180.627 152.878 180.155 153.049C180.155 153.049 180.155 153.082 180.155 153.076C180.734 152.985 180.83 152.176 180.734 151.688Z" fill="#263238"/>
<path d="M180.267 151.114C179.41 151.039 179.324 152.749 180.117 152.819C180.911 152.889 180.98 151.152 180.267 151.114Z" fill="#263238"/>
<path d="M185.166 150.316C184.942 150.248 184.722 150.168 184.507 150.075C184.262 150.022 184.042 149.89 183.88 149.699C183.84 149.63 183.824 149.548 183.836 149.469C183.848 149.389 183.886 149.315 183.944 149.26C184.074 149.167 184.227 149.11 184.386 149.096C184.545 149.082 184.706 149.111 184.85 149.18C185.163 149.275 185.432 149.481 185.606 149.758C185.64 149.825 185.654 149.9 185.646 149.974C185.639 150.048 185.61 150.119 185.564 150.177C185.518 150.236 185.456 150.28 185.385 150.305C185.315 150.329 185.239 150.333 185.166 150.316Z" fill="#263238"/>
<path d="M179.614 150.241C179.849 150.203 180.064 150.134 180.294 150.075C180.543 150.047 180.776 149.94 180.959 149.769C181.008 149.705 181.035 149.627 181.035 149.547C181.035 149.466 181.008 149.388 180.959 149.324C180.84 149.218 180.695 149.145 180.538 149.114C180.382 149.083 180.22 149.094 180.069 149.147C179.746 149.205 179.456 149.381 179.255 149.64C179.213 149.701 179.19 149.773 179.188 149.846C179.186 149.919 179.205 149.992 179.243 150.055C179.281 150.118 179.335 150.169 179.401 150.202C179.467 150.235 179.541 150.248 179.614 150.241Z" fill="#263238"/>
<path d="M183.494 154.958C183.358 155.167 183.181 155.346 182.972 155.482C182.764 155.619 182.529 155.71 182.283 155.751C182.066 155.78 181.846 155.78 181.629 155.751C181.588 155.756 181.546 155.756 181.505 155.751H181.388C181.329 155.751 181.296 155.692 181.286 155.633C181.283 155.615 181.283 155.597 181.286 155.579V155.536C181.286 155.124 181.329 154.502 181.329 154.502C181.178 154.577 180.412 154.909 180.428 154.7C180.495 152.857 180.75 151.025 181.189 149.233C181.189 149.22 181.194 149.208 181.203 149.199C181.212 149.19 181.225 149.185 181.237 149.185C181.25 149.185 181.263 149.19 181.272 149.199C181.281 149.208 181.286 149.22 181.286 149.233C181.232 150.938 180.878 152.621 180.798 154.325C181.072 154.205 181.36 154.123 181.656 154.079C181.714 154.079 181.543 155.279 181.559 155.461C181.894 155.498 182.232 155.467 182.554 155.37C182.876 155.274 183.176 155.113 183.435 154.899C183.489 154.904 183.526 154.904 183.494 154.958Z" fill="#263238"/>
<path d="M181.875 155.569C182.095 155.863 182.387 156.095 182.722 156.244C182.91 156.318 183.116 156.333 183.312 156.287C183.735 156.18 183.751 155.788 183.676 155.456C183.636 155.28 183.575 155.109 183.494 154.947C183.034 155.319 182.467 155.537 181.875 155.569Z" fill="#263238"/>
<path d="M182.722 156.244C182.91 156.318 183.115 156.333 183.312 156.287C183.735 156.18 183.751 155.788 183.676 155.456C183.452 155.462 183.236 155.542 183.063 155.685C182.89 155.828 182.77 156.025 182.722 156.244Z" fill="#FF9ABB"/>
<path d="M178.091 146.634C178.391 145.964 178.734 145.288 179.163 145.16C179.592 145.031 180.401 146.232 181.307 146.301C182.551 146.398 183.387 145.009 185.129 144.902C186.871 144.795 187.916 146.902 187.943 150.45C187.943 153.623 189.878 153.939 189.878 153.939C189.878 153.939 191.111 146.971 189.16 144.624C187.208 142.276 182.728 141.22 179.646 143.396C178.525 144.184 178.091 146.634 178.091 146.634Z" fill="#263238"/>
<path d="M188.286 152.674C188.286 152.674 189.765 149.994 190.966 150.498C192.167 151.002 191.234 154.754 189.958 155.392C189.8 155.484 189.625 155.543 189.443 155.566C189.261 155.589 189.077 155.575 188.901 155.525C188.725 155.475 188.56 155.39 188.418 155.275C188.275 155.16 188.158 155.017 188.071 154.856L188.286 152.674Z" fill="#D3766A"/>
<path d="M190.671 151.57C190.671 151.57 190.671 151.57 190.671 151.602C189.776 152.079 189.379 152.996 189.127 153.923C189.173 153.825 189.239 153.737 189.321 153.667C189.404 153.596 189.5 153.544 189.604 153.513C189.708 153.483 189.817 153.475 189.925 153.49C190.032 153.505 190.135 153.543 190.226 153.602C190.226 153.602 190.226 153.661 190.226 153.655C190.057 153.619 189.881 153.637 189.722 153.707C189.564 153.776 189.431 153.893 189.342 154.041C189.193 154.289 189.073 154.554 188.983 154.829C188.945 154.915 188.79 154.888 188.811 154.786C188.672 153.58 189.406 151.822 190.671 151.57Z" fill="#263238"/>
<path d="M45.522 91.4255C47.2158 92.3099 47.5427 95.3651 52.9242 95.1775C53.6906 95.1775 54.3124 94.8506 55.0199 95.1078C56.0437 95.4884 56.8584 96.3085 57.775 96.9088C58.5118 97.4003 59.3483 97.7224 60.2245 97.8522C61.9125 98.0531 63.6179 97.6609 65.0485 96.7426C65.9275 96.2066 66.6565 95.4509 67.5194 94.8613C68.3824 94.2717 73.5173 93.0335 74.3802 90.1445C74.9162 88.306 74.8466 86.2156 72.665 83.5302C72.1606 83.053 71.8161 82.4314 71.6788 81.7507C71.6826 81.1527 71.8199 80.563 72.0808 80.0248C72.3826 79.4123 72.4911 78.7225 72.3917 78.047C72.1487 77.404 71.7575 76.8274 71.25 76.3639C70.446 75.3938 70.5961 73.9841 71.25 72.2528C71.5055 71.5194 71.59 70.7374 71.4971 69.9663C71.4042 69.1953 71.1363 68.4557 70.714 67.804C70.1844 67.0541 69.5591 66.3766 68.8541 65.7886C67.8732 64.856 67.691 63.9877 67.2461 62.6745C66.4153 60.1392 65.1021 59.0029 63.5638 58.2257C62.1809 57.5235 62.2291 57.7915 60.739 58.0166C59.2344 57.1014 57.4639 56.7234 55.7167 56.9446C54.1087 57.1483 52.7526 58.2418 51.5252 59.2816C50.4532 60.2142 49.4294 61.2166 49.3812 62.787C49.349 63.6929 49.5688 64.588 49.5259 65.467C49.4723 66.6194 48.8291 67.3484 48.0626 68.072C46.9248 69.0424 46.1391 70.3613 45.8275 71.824C45.6292 73.0514 46.8298 74.9489 45.4202 76.7659C44.1713 78.3739 41.979 80.207 41.4055 82.2278C39.6314 88.5258 43.8926 90.584 45.522 91.4255Z" fill="#263238"/>
<path d="M66.3401 94.797C68.8111 94.4271 72.606 94.8881 73.9192 92.117C74.4383 91.6929 74.849 91.1514 75.1175 90.5372C75.3859 89.923 75.5043 89.2537 75.4628 88.5847C75.3878 87.1268 74.5356 85.8618 73.5976 84.8327C72.9912 84.2657 72.463 83.6204 72.0271 82.9138C71.8876 82.3639 71.7856 81.8052 71.7216 81.2415C71.8265 80.5204 72.0247 79.8159 72.3112 79.1458C72.3112 79.119 72.3112 79.1458 72.3112 79.1458C71.7752 80.2821 71.2713 81.547 71.7752 82.812C71.846 82.9974 71.9321 83.1767 72.0324 83.348C72.2104 84.0147 72.4564 84.6613 72.7668 85.2776C73.5815 86.8856 74.3212 88.3489 74.214 90.2302C74.1919 90.8583 74.0405 91.4751 73.7691 92.0419C72.7008 92.9784 71.3664 93.5575 69.9528 93.6982C69.9206 93.6982 69.9152 93.7625 69.9528 93.7571C71.2318 93.6273 72.4585 93.1816 73.5225 92.46C72.086 94.5129 68.7575 94.2395 66.3455 94.7112C66.2651 94.7273 66.2919 94.8077 66.3401 94.797ZM74.1068 91.656V91.6024C74.5284 90.084 74.4187 88.4671 73.7959 87.0196C73.4046 86.0602 72.8204 85.1972 72.4344 84.2324C72.3701 84.0662 72.3058 83.8947 72.2522 83.7286C72.7882 84.479 73.5493 85.1061 74.0853 85.8404C75.2645 87.4484 75.6076 89.3512 74.5141 91.0825C74.3912 91.2825 74.2551 91.4741 74.1068 91.656Z" fill="#263238"/>
<path d="M40.1993 88.44C40.2315 88.4936 40.3065 88.44 40.2797 88.3918C39.2077 86.5801 39.5293 84.7202 40.3655 83.0586C39.9635 85.5402 40.4513 88.3221 42.7239 89.6567C42.7614 89.6567 42.7936 89.6192 42.7561 89.5978C40.4084 88.1881 40.0761 84.9774 40.6871 82.469C41.2074 81.6123 41.8164 80.8128 42.5041 80.0838C43.5761 78.926 44.9269 77.779 45.7201 76.3318C45.5569 77.1714 45.082 77.9182 44.3909 78.4222C44.348 78.4543 44.3909 78.524 44.4284 78.4972C45.1768 77.993 45.7116 77.229 45.9292 76.3532C45.9635 76.1765 45.9833 75.9972 45.9881 75.8172C46.1916 75.3519 46.3235 74.8586 46.3794 74.3539C46.3151 74.8044 46.1908 75.2443 46.0096 75.6618C45.916 74.8814 45.7362 74.1138 45.4736 73.373C44.8947 71.229 45.9774 69.948 47.3121 68.7956C47.4193 68.7259 47.5265 68.6562 47.639 68.5919C48.3679 68.2113 48.9822 67.6433 49.4185 66.9464C49.5097 66.8499 49.6008 66.7534 49.6865 66.6516C49.6865 66.6516 49.5418 66.7963 49.4721 66.866C49.5669 66.667 49.6406 66.4586 49.6919 66.2442C49.5506 66.6065 49.3454 66.9406 49.0862 67.2305C48.5502 67.6754 47.966 68.0827 47.4032 68.5115C46.3312 69.1547 45.2967 69.7658 44.8893 71.0468C44.482 72.3278 44.8036 73.5767 44.8893 74.7988C45.0394 76.7177 44.3533 78.3203 42.606 79.0868C42.606 79.0868 42.5738 79.1297 42.606 79.119C42.739 79.0824 42.8697 79.0376 42.9973 78.985C41.9229 79.7639 41.101 80.8411 40.6335 82.083C39.4114 83.9644 38.8969 86.3978 40.1993 88.44ZM44.6749 77.645L44.0853 78.1006C44.3638 77.7738 44.5817 77.3998 44.7285 76.9964C45.2109 75.635 44.8089 74.1556 44.7768 72.7566C44.7291 72.1697 44.8241 71.5799 45.0537 71.0376C45.2833 70.4954 45.6407 70.0167 46.0953 69.6425C45.6953 70.0903 45.3956 70.6184 45.2163 71.1915C44.9108 72.226 45.2163 73.1854 45.5272 74.177C45.7344 74.8016 45.8128 75.4616 45.7577 76.1174C45.4515 76.6599 45.0885 77.1684 44.6749 77.6342V77.645ZM41.0623 81.397C41.672 80.2984 42.5133 79.3455 43.5279 78.6044L43.7316 78.4329C44.0103 78.2078 44.2676 77.9826 44.557 77.7522C43.4153 79.0332 42.0271 80.1534 41.0623 81.4077V81.397Z" fill="#263238"/>
<path d="M68.5324 65.4349C69.4534 66.2353 70.3302 67.0852 71.1588 67.9809C71.7382 68.5654 72.085 69.3409 72.1344 70.1624C72.1572 70.9908 71.8962 71.8021 71.3947 72.4618C71.2071 72.7406 71.0248 73.0246 70.8587 73.3141C70.8199 73.8495 70.9042 74.3868 71.1052 74.8846C71.5072 75.8333 72.4024 76.4175 72.8204 77.377C73.4904 78.9314 72.7454 80.207 72.0915 81.6006C72.5632 80.4643 73.2278 79.3387 72.8633 78.0523C72.5632 76.9803 71.7913 76.4443 71.2124 75.5706C70.8576 75.0277 70.6609 74.3967 70.6443 73.7482C70.1083 74.8202 69.9475 75.8922 70.8587 76.9964C70.9016 77.05 70.8587 77.1197 70.7944 77.0714C69.6366 75.8976 69.9421 74.4772 70.6496 73.239C70.6936 72.5035 70.8546 71.7798 71.1267 71.095C71.1588 71.0254 71.2607 71.095 71.2446 71.1486C71.1428 71.6846 71.0088 72.2206 70.9337 72.7566L71.0516 72.5798C71.9789 71.2612 72.3327 69.7282 71.2768 68.2918C70.4835 67.2198 69.4008 66.4104 68.5164 65.4402C68.521 65.4368 68.5266 65.4349 68.5324 65.4349Z" fill="#263238"/>
<path d="M99.0791 249.24C97.8517 249.626 61.9504 248.849 60.6426 247.975C60.1387 247.648 63.21 213.644 63.21 213.644L85.9793 214.078L83.3904 236.826C83.3904 236.826 96.635 243.103 97.9803 244.218C99.3257 245.333 100.312 248.854 99.0791 249.24Z" fill="#AD6359"/>
<path d="M99.0792 249.24C97.8518 249.621 61.9505 248.849 60.6426 247.97C60.4818 247.873 60.4336 244.421 61.0071 239.93C67.5142 241.002 90.7551 244.588 92.5614 243.521C93.821 242.781 92.7062 241.623 91.6717 240.841C94.6411 242.32 97.4069 243.746 97.9804 244.223C99.3097 245.322 100.307 248.854 99.0792 249.24Z" fill="#263238"/>
<path d="M84.0336 231.37L61.6824 231.054C61.6824 231.054 66.1097 177.518 65.9221 176.489C65.6916 175.17 49.8421 112.989 49.8421 112.989H71.1749C71.1749 112.989 87.9946 170.946 88.6003 176.532C89.5651 185.547 84.0336 231.37 84.0336 231.37Z" fill="#37474F"/>
<path d="M63.6922 226.004C65.0107 225.913 66.3722 225.929 67.6693 225.908C68.9664 225.886 70.3225 225.908 71.6464 225.908C74.3264 225.935 76.9475 225.972 79.5953 226.047C80.3243 226.047 81.0479 226.09 81.7715 226.122C82.4951 226.154 83.3205 226.294 84.0923 226.321C84.1513 226.321 84.1513 226.417 84.0923 226.417C83.4384 226.417 82.7899 226.519 82.1359 226.535C81.482 226.551 80.7852 226.562 80.1099 226.562C78.7859 226.562 77.4299 226.562 76.1327 226.562C73.4849 226.562 70.8317 226.503 68.1839 226.396C66.6884 226.331 65.1769 226.315 63.6868 226.165C63.6655 226.164 63.6453 226.155 63.6308 226.14C63.6162 226.124 63.6084 226.103 63.6091 226.082C63.6098 226.061 63.619 226.041 63.6345 226.026C63.6501 226.011 63.6709 226.004 63.6922 226.004Z" fill="#263238"/>
<path d="M54.5212 118.011C56.4294 124.77 58.1767 131.588 59.8812 138.379C61.5857 145.17 63.2955 152.015 64.9946 158.833L67.5353 169.087C68.3607 172.404 69.3202 175.744 69.5292 179.174C69.7382 182.604 69.2934 186.174 68.9932 189.648C68.693 193.121 68.4036 196.616 68.0981 200.116C67.487 207.084 66.9028 214.084 66.1417 221.052C66.0452 221.925 65.9541 222.799 65.863 223.667C65.863 223.742 65.7397 223.742 65.745 223.667C66.2114 216.699 66.6938 209.699 67.2512 202.721C67.5299 199.233 67.814 195.742 68.1034 192.247C68.3875 188.763 68.7949 185.279 68.9021 181.774C69.0093 178.268 68.3661 174.87 67.5192 171.466C66.6723 168.063 65.8469 164.793 65.0107 161.454C63.3062 154.64 61.6035 147.822 59.9026 141C58.0106 133.368 56.1185 125.713 54.4462 118.027C54.444 118.017 54.4459 118.007 54.4515 117.998C54.457 117.99 54.4657 117.984 54.4756 117.982C54.4856 117.98 54.496 117.981 54.5045 117.987C54.5131 117.992 54.5191 118.001 54.5212 118.011Z" fill="#263238"/>
<path d="M49.8475 112.989C49.8475 112.989 56.6494 139.666 61.409 158.447L70.4889 112.989H49.8475Z" fill="#263238"/>
<path d="M72.2739 249.315C71.0411 249.701 35.1452 248.924 33.832 248.05C33.3282 247.728 35.2042 213.703 35.2042 213.703L57.6679 214.137L56.5959 236.907C56.5959 236.907 69.8458 243.178 71.1858 244.293C72.5258 245.408 73.5014 248.94 72.2739 249.315Z" fill="#AD6359"/>
<path d="M72.2737 249.315C71.0462 249.701 35.1396 248.924 33.8317 248.05C33.6709 247.948 33.7085 244.588 33.8317 240.01C40.3388 241.082 63.9389 244.673 65.7452 243.607C67.0101 242.867 65.8899 241.704 64.8608 240.927C67.8249 242.406 70.5906 243.826 71.1641 244.303C72.4988 245.402 73.5011 248.94 72.2737 249.315Z" fill="#263238"/>
<path d="M70.4729 112.983C70.4729 112.983 69.8512 123.167 67.4177 131.234C67.2194 131.899 67.0103 132.558 66.7799 133.185C64.6286 134.022 62.5582 135.054 60.5944 136.267C60.5944 136.267 59.0561 175.283 59.0829 177.705C59.1848 186.769 56.8692 230.92 56.8692 230.92L34.3572 230.705C34.3572 230.705 36.6942 180.777 36.7049 177.459C36.7049 174.243 38.2379 153.987 39.594 136.423C39.594 136.423 37.5893 130.811 37.8144 127.981C38.3504 121.109 41.4324 112.973 41.4324 112.973L70.4729 112.983Z" fill="#37474F"/>
<path d="M65.5524 126.684C65.6328 126.115 65.7186 125.553 65.8044 124.99C65.9652 123.955 66.1742 122.926 66.3404 121.897C66.7531 119.56 67.1819 117.212 67.7018 114.897C67.7018 114.843 67.809 114.854 67.8036 114.897C67.7072 115.835 67.6 116.768 67.4713 117.695C67.3427 118.622 67.2462 119.566 67.1122 120.498C66.8549 122.342 66.5762 124.191 66.2814 126.03C66.1581 126.737 65.7454 128.008 66.737 128.227C67.5464 128.404 68.136 127.611 68.3772 126.946C68.6254 126.112 68.8047 125.259 68.9132 124.395C69.0793 123.462 69.224 122.524 69.358 121.592C69.6475 119.548 69.9601 117.509 70.296 115.476C70.296 115.422 70.3979 115.438 70.3925 115.476C70.3498 117.565 70.1995 119.651 69.9423 121.726C69.8136 122.723 69.6635 123.714 69.492 124.7C69.3931 125.651 69.164 126.583 68.8113 127.472C68.6659 127.82 68.435 128.127 68.1399 128.363C67.8448 128.599 67.4951 128.757 67.1229 128.822H67.0747C67.0854 128.828 67.0942 128.836 67.1 128.847C67.1057 128.857 67.1081 128.869 67.1068 128.881C67.1068 129.208 67.1068 129.546 67.0693 129.873C67.0318 130.2 66.9675 130.527 66.9032 130.848C66.8464 131.178 66.7621 131.503 66.6512 131.818C66.6011 131.972 66.5421 132.122 66.4744 132.269C66.3993 132.419 66.2975 132.537 66.2117 132.676C66.2061 132.689 66.1959 132.7 66.1829 132.706C66.1699 132.713 66.155 132.714 66.1412 132.71C66.1273 132.706 66.1154 132.697 66.1077 132.685C66.0999 132.673 66.0969 132.658 66.0992 132.644C66.0992 132.59 66.0992 132.537 66.0992 132.483V132.451C66.0938 132.355 66.0938 132.258 66.0992 132.162C66.0992 132.001 66.1635 131.845 66.1956 131.69C66.2653 131.374 66.3511 131.063 66.4368 130.752C66.5226 130.441 66.5869 130.125 66.6673 129.814C66.7477 129.503 66.8549 129.176 66.93 128.854C66.9274 128.844 66.9274 128.833 66.93 128.822C66.6306 128.837 66.3338 128.76 66.0797 128.601C65.8257 128.442 65.6267 128.208 65.5096 127.932C65.4185 127.519 65.4333 127.09 65.5524 126.684Z" fill="#263238"/>
<path d="M58.7717 137.044C59.4425 136.527 60.1501 136.06 60.8889 135.646C61.668 135.178 62.4753 134.759 63.3062 134.391C64.9142 133.684 66.6187 133.201 68.3018 132.644C68.35 132.644 68.3875 132.714 68.3339 132.73C66.7259 133.378 65.1447 134.241 63.5689 135.013C62.797 135.388 62.0091 135.753 61.2212 136.085C60.4333 136.417 59.6454 136.841 58.8306 137.157C58.7717 137.178 58.7234 137.082 58.7717 137.044Z" fill="#263238"/>
<path d="M46.047 122.835C47.1946 122.824 48.3362 122.669 49.4452 122.374C49.9812 122.246 50.4636 122.079 50.9621 121.919C51.4599 121.779 51.926 121.544 52.3343 121.227C53.1061 120.562 53.4652 119.512 53.8029 118.585C54.1688 117.533 54.466 116.459 54.6927 115.369C54.6927 115.315 54.7838 115.331 54.7838 115.369C54.8103 116.6 54.655 117.828 54.3228 119.013C54.0441 120.021 53.6743 121.157 52.8596 121.854C51.9554 122.53 50.8724 122.925 49.7454 122.991C48.5137 123.134 47.2687 123.116 46.0416 122.937C46.033 122.931 46.026 122.923 46.0213 122.914C46.0166 122.905 46.0145 122.895 46.015 122.884C46.0155 122.874 46.0188 122.864 46.0244 122.856C46.03 122.847 46.0378 122.84 46.047 122.835Z" fill="#263238"/>
<path d="M35.3273 226.337C36.6458 226.24 38.0073 226.256 39.3044 226.24C40.6015 226.224 41.9844 226.24 43.2815 226.24C45.9365 226.262 48.5879 226.308 51.2357 226.38C51.9593 226.38 52.6829 226.422 53.3797 226.455C54.0765 226.487 54.9288 226.621 55.7006 226.653C55.7079 226.65 55.7157 226.65 55.7233 226.651C55.7309 226.652 55.7381 226.655 55.7444 226.659C55.7507 226.664 55.7558 226.67 55.7593 226.676C55.7629 226.683 55.7647 226.691 55.7647 226.699C55.7647 226.706 55.7629 226.714 55.7593 226.721C55.7558 226.727 55.7507 226.733 55.7444 226.738C55.7381 226.742 55.7309 226.745 55.7233 226.746C55.7157 226.747 55.7079 226.747 55.7006 226.744C55.0521 226.744 54.3981 226.851 53.7442 226.867C53.0903 226.883 52.3935 226.894 51.7181 226.894H47.741C45.0932 226.894 42.44 226.835 39.7921 226.723C38.2967 226.664 36.7852 226.642 35.2951 226.498C35.2738 226.493 35.255 226.481 35.243 226.463C35.2309 226.445 35.2265 226.422 35.2308 226.401C35.235 226.38 35.2476 226.361 35.2657 226.349C35.2838 226.337 35.3059 226.332 35.3273 226.337Z" fill="#263238"/>
<path d="M38.0556 223.405C38.0199 223.403 37.9849 223.395 37.9525 223.38C37.9201 223.365 37.8911 223.343 37.8672 223.317C37.8432 223.29 37.8248 223.259 37.8129 223.226C37.8011 223.192 37.7961 223.156 37.7983 223.121L42.8849 135.753C42.8206 135.372 41.3841 130.489 41.2769 127.997C41.1429 125.365 43.8712 115.095 43.9569 114.656C43.977 114.586 44.0235 114.527 44.0866 114.491C44.1496 114.455 44.2243 114.445 44.2946 114.463C44.3296 114.472 44.3623 114.488 44.391 114.51C44.4197 114.532 44.4437 114.56 44.4616 114.591C44.4796 114.623 44.4911 114.657 44.4956 114.693C44.5 114.729 44.4973 114.766 44.4876 114.8C44.4876 114.902 41.6682 125.419 41.8076 127.97C41.9469 130.521 43.4156 135.651 43.4156 135.694C43.4156 135.737 38.3289 223.148 38.3289 223.148C38.3236 223.217 38.2926 223.281 38.2421 223.329C38.1915 223.377 38.125 223.404 38.0556 223.405Z" fill="#263238"/>
<path d="M63.5048 82.544C74.5035 92.2188 84.6875 102.853 85.5612 108.331C86.7404 115.91 82.0933 118.07 80.0029 118.113C74.3052 118.231 63.6924 95.2579 59.994 86.489C56.4028 77.9612 61.1035 80.4 63.5048 82.544Z" fill="#DC0804"/>
<path d="M71.0357 112.983L69.5027 103.335C69.5027 103.335 73.3137 99.3851 71.3466 95.2526C70.3496 93.1568 63.5692 82.9246 59.9512 80.3732C56.5583 77.9666 52.533 79.9658 51.0215 82.5708C47.2212 89.1475 43.6032 96.7051 41.4056 112.978L71.0357 112.983Z" fill="#DC0804"/>
<path d="M64.9789 102.103C63.4397 102.27 61.9151 102.551 60.4175 102.944C59.6725 103.153 58.9489 103.389 58.2199 103.646C57.8608 103.775 57.4963 103.888 57.1479 104C56.7683 104.13 56.374 104.213 55.9741 104.247C55.967 104.247 55.9602 104.249 55.9551 104.254C55.9501 104.26 55.9473 104.266 55.9473 104.273C55.9473 104.281 55.9501 104.287 55.9551 104.292C55.9602 104.297 55.967 104.3 55.9741 104.3C56.3516 104.313 56.7296 104.298 57.1051 104.257C57.4674 104.209 57.8257 104.133 58.1771 104.032C58.9328 103.834 59.6725 103.593 60.4283 103.384C61.9451 102.966 63.462 102.542 65.0057 102.231C65.0228 102.228 65.0377 102.218 65.0473 102.203C65.0568 102.188 65.0602 102.171 65.0566 102.154C65.0531 102.137 65.0429 102.122 65.0283 102.112C65.0137 102.102 64.996 102.099 64.9789 102.103Z" fill="#263238"/>
<path d="M68.8218 103.394C67.5475 103.284 66.2679 103.248 64.9894 103.287C64.3516 103.287 63.7191 103.362 63.0813 103.437L62.1754 103.555C61.8431 103.609 61.5161 103.7 61.1838 103.743C61.1517 103.743 61.1517 103.802 61.1838 103.802C61.5001 103.77 61.8217 103.802 62.1379 103.802L63.092 103.754L65.0055 103.673C66.2758 103.603 67.5461 103.55 68.8218 103.523C68.8389 103.523 68.8552 103.516 68.8673 103.504C68.8794 103.492 68.8861 103.476 68.8861 103.459C68.8861 103.442 68.8794 103.425 68.8673 103.413C68.8552 103.401 68.8389 103.394 68.8218 103.394Z" fill="#263238"/>
<path d="M50.6354 81.5846C40.4032 89.6246 30.3424 103.523 30.2674 111.29C30.1977 118.96 32.867 118.22 33.6281 118.167C38.2592 117.866 49.1721 96.5175 52.4953 87.8129C55.8185 79.1082 53.1653 79.596 50.6354 81.5846Z" fill="#DC0804"/>
<path d="M39.7871 112.174C40.3231 111.209 40.8591 110.255 41.3951 109.28L43.0031 106.375C44.0751 104.44 45.1471 102.505 46.1494 100.548C47.1517 98.5918 48.2237 96.6569 49.2367 94.6951C49.7477 93.716 50.2426 92.7298 50.7215 91.7364C51.2199 90.7502 51.6755 89.7478 52.1419 88.7455C51.4059 90.8327 50.556 92.878 49.5959 94.872C48.6579 96.8766 47.6341 98.8384 46.6103 100.795C45.5866 102.751 44.4663 104.675 43.3515 106.573C42.2366 108.47 41.0574 110.362 39.7871 112.174Z" fill="#263238"/>
<path d="M51.0483 91.3183C51.2365 90.9705 51.4478 90.6356 51.6808 90.316C51.7987 90.1552 51.9059 89.9944 52.0292 89.8443C52.1464 89.6827 52.2716 89.5271 52.4044 89.378C52.3079 89.7647 52.1367 90.1289 51.9006 90.45C51.6727 90.7897 51.3837 91.0842 51.0483 91.3183Z" fill="#263238"/>
<path d="M82.3559 97.0964C81.8199 93.4998 80.7479 88.4775 79.4401 87.4484C78.1322 86.4193 73.1206 82.7155 71.7002 82.2385C70.2798 81.7614 63.9229 79.4245 62.7651 80.0945C61.8432 80.6305 62.9742 83.0746 65.9811 84.2163C67.6205 84.8757 69.2189 85.6328 70.7676 86.4836C71.5448 86.8052 73.4476 89.2869 72.9116 90.3964C72.6222 91.0503 70.7301 91.8382 69.5455 91.3183C68.361 90.7984 68.0447 88.4668 66.6886 87.3787C65.3326 86.2906 62.9366 86.4514 62.8241 87.0946C62.7115 87.7378 63.4834 88.0326 64.7215 90.1981C65.5202 91.5917 65.6059 94.9578 67.4015 97.3483C68.3222 98.7661 69.1545 100.239 69.8939 101.76L82.3559 97.0964Z" fill="#AD6359"/>
<path d="M65.4557 86.4032C65.0183 86.3396 64.6077 86.1538 64.2712 85.8672C64.1381 85.7363 64.0435 85.5712 63.9978 85.3902C63.9844 85.2906 63.9844 85.1896 63.9978 85.09C64.0007 84.9834 64.0405 84.8811 64.1104 84.8006C64.1104 84.7523 64.1104 84.8006 64.1104 84.8006C64.0777 84.851 64.0419 84.8993 64.0032 84.9453C63.9747 84.987 63.9513 85.032 63.9335 85.0793C63.9014 85.1742 63.8851 85.2738 63.8853 85.3741C63.8986 85.596 63.9853 85.8072 64.1318 85.9744C64.3059 86.1527 64.519 86.2881 64.7543 86.37C64.9896 86.4519 65.2408 86.4779 65.4879 86.4461C65.4879 86.4461 65.4772 86.4086 65.4557 86.4032Z" fill="#263238"/>
<path d="M79.44 87.4377C78.2768 85.6474 75.3074 82.4368 72.3916 81.3487C70.4191 80.6198 63.6923 83.9805 63.9067 85.2722C64.1211 86.564 65.2681 86.5533 66.978 86.3442C67.5997 86.2638 70.88 85.0418 71.4482 85.7278C72.2683 86.7141 73.3296 90.0962 73.3296 90.0962L79.44 87.4377Z" fill="#AD6359"/>
<path d="M64.0676 84.763C64.8876 83.3748 66.7154 82.619 68.5378 82.0134C68.5378 82.0134 68.5807 82.0455 68.5378 82.0562C68.0715 82.2117 65.1128 83.6106 64.0729 84.7845C64.0783 84.8006 64.0568 84.7791 64.0676 84.763Z" fill="#263238"/>
<path d="M79.44 87.4377C78.2769 85.6474 75.3075 82.4368 72.3916 81.3487C70.4192 80.6198 65.1181 84.8863 65.3272 86.1727C65.5362 87.4591 67.1978 87.5449 69.0256 86.891C69.6152 86.6766 71.5876 85.2562 72.1558 85.9422C72.9705 86.9285 74.9644 89.3726 74.9644 89.3726L79.44 87.4377Z" fill="#AD6359"/>
<path d="M73.8121 87.8611C73.6299 87.5824 73.5655 87.4806 73.3726 87.2018C73.1796 86.9231 72.9813 86.6658 72.7723 86.3871C72.6069 86.1424 72.4001 85.9283 72.1612 85.7546C71.9142 85.6146 71.6272 85.5617 71.3465 85.6046C70.7168 85.7417 70.1232 86.0101 69.6045 86.3925C68.7655 86.921 67.798 87.2101 66.8066 87.2286C66.5439 87.2142 66.2868 87.1467 66.0508 87.0303C65.8726 86.951 65.7162 86.8296 65.5952 86.6766C65.1718 85.9744 65.681 85.165 66.2063 84.5915C67.2384 83.5487 68.4517 82.7023 69.7867 82.0938L70.7355 81.6328C71.093 81.4385 71.4875 81.3216 71.8932 81.2898C72.5579 81.2898 73.6513 81.9437 73.9943 82.142C73.9943 82.142 74.0372 82.1152 73.9943 82.0991C73.587 81.8526 72.5632 81.0271 71.4912 81.0968C71.1012 81.1607 70.7256 81.2932 70.3817 81.4881C70.0065 81.6489 69.642 81.8311 69.2775 82.0241C68.5697 82.3821 67.8905 82.7943 67.2461 83.2569C66.6007 83.6857 66.0409 84.231 65.5952 84.8649C65.407 85.1451 65.2986 85.4712 65.2816 85.8083C65.2646 86.1453 65.3397 86.4807 65.4987 86.7784C65.6423 86.9653 65.8253 87.1184 66.0346 87.2268C66.244 87.3351 66.4746 87.3962 66.7101 87.4055C66.9912 87.4428 67.2759 87.4428 67.557 87.4055C68.1783 87.271 68.7891 87.0918 69.3847 86.8695C69.9636 86.6337 70.4835 86.237 71.0839 86.0494C71.2244 85.9986 71.3737 85.9766 71.5229 85.9849C71.6722 85.9932 71.8182 86.0316 71.9522 86.0977C72.1971 86.26 72.4173 86.4568 72.6061 86.6819C73.0014 87.0718 73.3602 87.497 73.6781 87.9522C73.8067 88.0219 73.8925 87.979 73.8121 87.8611Z" fill="#263238"/>
<path d="M80.3082 88.976C79.8794 88.1238 79.129 84.6022 78.4376 83.5302C77.7461 82.4582 74.5944 78.7438 73.1472 78.9206C71.3248 79.1404 73.2598 82.41 74.2192 83.7446C75.1787 85.0793 75.05 87.3948 75.05 87.3948L80.3082 88.976Z" fill="#AD6359"/>
<path d="M72.8953 81.547C73.2345 81.9825 73.5512 82.4352 73.844 82.9031C74.1522 83.3278 74.4298 83.7738 74.6748 84.2378C74.8816 84.7209 75.0048 85.2356 75.0393 85.76C75.0661 86.0173 75.0768 86.296 75.0822 86.5265C75.0875 86.757 75.0822 87.0625 75.0822 87.3626C75.0822 87.3894 75.0339 87.3948 75.0339 87.3626C74.9941 86.8548 74.9224 86.35 74.8195 85.8511C74.7236 85.3336 74.5652 84.8297 74.3478 84.3503C73.9083 83.4016 73.2758 82.5547 72.831 81.606C72.7934 81.5417 72.847 81.5149 72.8953 81.547Z" fill="#263238"/>
<path d="M75.0395 87.8129C75.1111 88.6938 74.96 89.5785 74.6 90.3857C74.435 90.7944 74.2434 91.1919 74.0265 91.5756C73.7989 91.9469 73.5502 92.3049 73.2815 92.6476C72.2013 93.9631 71.5155 95.5575 71.3036 97.2465C71.2304 96.3708 71.3306 95.4892 71.5984 94.6522C71.8823 93.8133 72.3064 93.0285 72.8527 92.3314C73.3743 91.6653 73.8252 90.9468 74.198 90.1874C74.6072 89.4475 74.8915 88.6453 75.0395 87.8129Z" fill="#263238"/>
<path d="M79.4722 117.85C75.9131 117.368 73.5762 111.418 69.524 100.956C68.8111 99.1171 78.1 87.829 79.3757 89.512C80.9837 91.656 85.2717 103.448 85.7058 106.664C86.5956 113.021 83.6154 118.408 79.4722 117.85Z" fill="#AD6359"/>
<path d="M71.6734 106.793L83.1384 95.6492C83.1384 95.6492 86.3973 105.238 86.0918 109.258C85.7863 113.278 84.3873 117.834 79.5472 118.113C75.9239 118.301 71.6734 106.793 71.6734 106.793Z" fill="#DC0804"/>
<path d="M75.3771 114.506C74.9644 113.921 74.5946 113.305 74.2355 112.689C73.8763 112.072 73.544 111.434 73.2171 110.797C72.8901 110.159 72.6007 109.51 72.3327 108.84C72.0537 108.178 71.8331 107.493 71.6734 106.793C71.9735 107.441 72.2951 108.079 72.6167 108.712L73.5815 110.62C73.8924 111.258 74.2087 111.895 74.5088 112.544C74.809 113.192 75.1091 113.841 75.3771 114.506Z" fill="#263238"/>
<path d="M74.139 108.738C74.675 108.127 75.3075 107.559 75.8971 106.98C76.4867 106.401 77.087 105.833 77.6927 105.27C78.904 104.138 80.1225 103.019 81.3482 101.915C81.6859 101.615 82.0236 101.309 82.3666 101.015C82.7096 100.72 83.1384 100.425 83.4976 100.109C83.5036 100.106 83.5103 100.105 83.5169 100.106C83.5234 100.107 83.5295 100.11 83.5342 100.115C83.5389 100.12 83.542 100.126 83.5431 100.132C83.5442 100.139 83.5433 100.146 83.5404 100.152C83.2456 100.43 83.0044 100.757 82.7043 101.047C82.4041 101.336 82.104 101.636 81.7984 101.926L79.9975 103.63C78.7861 104.756 77.5748 105.881 76.3312 106.97C75.6291 107.586 74.9376 108.224 74.1872 108.797C74.1795 108.799 74.1715 108.798 74.1641 108.796C74.1567 108.793 74.1502 108.789 74.1452 108.782C74.1402 108.776 74.137 108.769 74.1359 108.761C74.1348 108.753 74.1359 108.746 74.139 108.738Z" fill="#263238"/>
<path d="M53.1921 80.3518C53.1921 80.3518 55.2718 85.6421 55.9579 86.2478C56.6439 86.8534 62.481 86.5158 62.6096 86.0334C62.7383 85.551 60.1494 80.7377 60.1494 80.7377C58.8742 80.1313 57.5028 79.7521 56.0972 79.6174C55.0734 79.5233 54.0482 79.7825 53.1921 80.3518Z" fill="#AD6359"/>
<path d="M53.6798 80.7002C53.7656 81.2898 56.1829 85.3098 59.3828 85.1114C61.2481 84.9989 59.9778 81.2844 59.9778 81.2844L61.5858 76.2085L55.4432 71.5131C55.4432 71.5131 53.6476 80.4536 53.6798 80.7002Z" fill="#AD6359"/>
<path d="M54.7896 74.8524C55.2014 76.1849 55.8825 77.4186 56.7906 78.4771C57.6988 79.5356 58.8147 80.3962 60.0692 81.0057L61.5914 76.2085L55.4489 71.5131C55.4489 71.5131 55.1487 73.0246 54.7896 74.8524Z" fill="#263238"/>
<path d="M68.8271 69.0743C69.0093 77.8004 63.8047 78.8938 61.9234 78.9314C60.2135 78.9689 54.4194 78.8617 53.3099 70.1999C52.2003 61.5382 56.2257 58.6974 60.1278 58.4079C64.0299 58.1185 68.6448 60.3429 68.8271 69.0743Z" fill="#AD6359"/>
<path d="M66.7798 68.3722C66.5842 68.3267 66.3909 68.2712 66.2009 68.206C65.9964 68.1714 65.8084 68.0718 65.6649 67.9219C65.6281 67.8637 65.6113 67.7949 65.6171 67.7262C65.6229 67.6575 65.651 67.5926 65.6971 67.5414C65.8026 67.4549 65.9291 67.398 66.0637 67.3763C66.1983 67.3547 66.3363 67.3691 66.4636 67.4181C66.7392 67.48 66.9819 67.6425 67.1443 67.8737C67.1797 67.93 67.1973 67.9957 67.195 68.0621C67.1926 68.1286 67.1704 68.1928 67.1311 68.2465C67.0918 68.3002 67.0374 68.3409 66.9748 68.3633C66.9121 68.3857 66.8442 68.3888 66.7798 68.3722Z" fill="#263238"/>
<path d="M60.8032 68.1042C61.0031 68.0905 61.2019 68.0637 61.3982 68.0238C61.613 68.0253 61.8222 67.9556 61.9931 67.8254C62.0349 67.7718 62.0575 67.7058 62.0575 67.6378C62.0575 67.5699 62.0349 67.5039 61.9931 67.4502C61.9015 67.3477 61.784 67.2717 61.6529 67.2302C61.5218 67.1887 61.382 67.1833 61.2481 67.2144C60.991 67.2403 60.7506 67.3538 60.5674 67.536C60.5206 67.5825 60.4886 67.6418 60.4757 67.7065C60.4627 67.7712 60.4693 67.8383 60.4946 67.8992C60.5199 67.9602 60.5627 68.0122 60.6177 68.0487C60.6727 68.0852 60.7372 68.1045 60.8032 68.1042Z" fill="#263238"/>
<path d="M61.886 70.3982C61.886 70.3982 61.8377 70.3982 61.8377 70.4465C61.8377 71.0414 61.7091 71.7222 61.1624 71.8937V71.9258C61.827 71.8669 61.9664 70.9664 61.886 70.3982Z" fill="#263238"/>
<path d="M61.3875 69.7497C60.4334 69.6318 60.2619 71.5399 61.1409 71.6525C62.0199 71.765 62.1754 69.8515 61.3875 69.7497Z" fill="#263238"/>
<path d="M61.0017 69.8194C60.8248 69.9105 60.6426 70.0874 60.4657 70.0874C60.2888 70.0874 60.0744 69.873 59.9297 69.6693C59.9297 69.6693 59.8976 69.6693 59.8922 69.6693C59.8547 70.0338 59.9619 70.4197 60.3478 70.5108C60.7337 70.6019 60.991 70.291 61.1143 69.9319C61.1036 69.889 61.0714 69.7818 61.0017 69.8194Z" fill="#263238"/>
<path d="M65.4717 70.4572C65.4717 70.4572 65.5146 70.4894 65.5146 70.5162C65.4342 71.1058 65.4449 71.7918 65.9648 72.0438C65.9648 72.0438 65.9648 72.0813 65.9648 72.0759C65.3109 71.9205 65.3056 71.0039 65.4717 70.4572Z" fill="#263238"/>
<path d="M66.0614 69.8944C67.0208 69.8944 66.9083 71.8294 66.0185 71.8079C65.1288 71.7865 65.2574 69.873 66.0614 69.8944Z" fill="#263238"/>
<path d="M66.4636 70.0445C66.6083 70.1517 66.7477 70.3446 66.9299 70.3661C67.1121 70.3875 67.3051 70.1946 67.4659 70.007C67.4659 70.007 67.4981 70.007 67.4927 70.007C67.4927 70.3714 67.3426 70.7466 66.9567 70.7949C66.5708 70.8431 66.4207 70.5162 66.351 70.1463C66.3349 70.0981 66.3939 69.9962 66.4636 70.0445Z" fill="#263238"/>
<path d="M64.5229 73.0139C64.5229 73.0139 64.5712 73.909 64.5229 74.3271C64.5229 74.3646 64.4211 74.3754 64.2764 74.3754C63.9126 74.4109 63.546 74.3462 63.2163 74.1885C62.8866 74.0307 62.6063 73.7858 62.4057 73.4802C62.3789 73.4374 62.4379 73.3998 62.4754 73.4266C62.9773 73.8342 63.5981 74.0675 64.2442 74.0913C64.2817 73.9787 64.1048 72.5583 64.1692 72.5583C64.491 72.6149 64.8044 72.7121 65.1018 72.8478C65.0428 70.9825 64.6891 69.1386 64.6623 67.2787C64.666 67.2667 64.6735 67.2562 64.6836 67.2488C64.6937 67.2413 64.706 67.2373 64.7186 67.2373C64.7311 67.2373 64.7434 67.2413 64.7535 67.2488C64.7636 67.2562 64.7711 67.2667 64.7748 67.2787C65.214 69.242 65.4582 71.2438 65.5038 73.2551C65.5145 73.4802 64.6837 73.0997 64.5229 73.0139Z" fill="#263238"/>
<path d="M64.03 74.1288C63.796 74.4114 63.4933 74.6291 63.151 74.7613C62.9593 74.8232 62.7531 74.8232 62.5614 74.7613C62.1433 74.638 62.1433 74.2253 62.2344 73.9144C62.2853 73.741 62.3554 73.5738 62.4435 73.4159C62.8819 73.818 63.4383 74.068 64.03 74.1288Z" fill="#263238"/>
<path d="M63.151 74.7613C62.9593 74.8232 62.7531 74.8232 62.5614 74.7613C62.1433 74.638 62.1433 74.2253 62.2344 73.9144C62.4601 73.9321 62.6733 74.0252 62.8396 74.1789C63.0059 74.3325 63.1156 74.5377 63.151 74.7613Z" fill="#FF9ABB"/>
<path d="M53.2405 70.3554C54.2053 70.3554 56.8639 67.8254 57.1855 63.1676C57.1855 63.1676 56.6066 67.3323 56.2582 67.9273C55.9098 68.5222 57.7429 66.5069 58.0591 62.7549C59.1977 63.6668 60.4612 64.4105 61.8111 64.9632C63.5585 65.5528 64.6466 65.5957 64.7806 65.4992C64.9146 65.4027 62.3418 64.4272 61.6825 63.5642C61.6825 63.5642 66.2867 66.0138 68.4522 66.2978C68.7041 66.33 69.283 61.1683 66.0348 58.7938C62.7867 56.4194 57.3302 58.5044 55.8508 59.8122C55.8508 59.8122 54.1517 59.9623 52.1899 62.3529C50.2282 64.7434 52.1953 70.3607 53.2405 70.3554Z" fill="#263238"/>
<path d="M58.1821 62.2778C58.1821 62.1706 58.0106 62.1706 58.016 62.2778C58.047 63.9829 57.7201 65.6756 57.0565 67.2466C57.0565 67.2466 57.0887 67.2841 57.0994 67.2466C57.8873 65.6546 58.4233 64.0842 58.1821 62.2778Z" fill="#263238"/>
<path d="M64.0888 65.719C61.575 65.2848 59.4417 64.3736 57.8551 62.31C57.823 62.2671 57.7479 62.31 57.7801 62.3529C59.0558 64.5826 61.6125 65.6064 64.0781 65.8154C64.1263 65.8208 64.1424 65.7297 64.0888 65.719Z" fill="#263238"/>
<path d="M54.7896 70.2482C54.7896 70.2482 53.069 67.402 51.788 68.0023C50.507 68.6026 51.6808 72.6334 53.0958 73.2658C53.2712 73.3601 53.4639 73.4179 53.6622 73.4356C53.8605 73.4534 54.0604 73.4308 54.2498 73.3691C54.4391 73.3075 54.614 73.2082 54.7639 73.0771C54.9138 72.9461 55.0356 72.786 55.1219 72.6066L54.7896 70.2482Z" fill="#AD6359"/>
<path d="M52.1524 69.144C52.1524 69.144 52.1524 69.1708 52.1524 69.1815C53.144 69.6586 53.6157 70.6341 53.9266 71.6364C53.8741 71.5304 53.7992 71.4371 53.7071 71.3629C53.615 71.2888 53.5078 71.2356 53.3931 71.207C53.2783 71.1785 53.1587 71.1752 53.0426 71.1975C52.9265 71.2199 52.8166 71.2672 52.7206 71.3362C52.7206 71.3362 52.7206 71.3952 52.7206 71.3898C52.9026 71.3453 53.0939 71.3579 53.2684 71.426C53.443 71.4941 53.5923 71.6144 53.6961 71.7704C53.8668 72.035 54.0087 72.3171 54.1195 72.6119C54.1624 72.703 54.3286 72.6655 54.3018 72.5583C54.4197 71.2505 53.5353 69.3691 52.1524 69.144Z" fill="#263238"/>
<path d="M62.3577 84.8006L57.5337 99.771C57.3407 100.205 57.5337 100.586 57.9786 100.613L65.831 101.149C66.072 101.147 66.3074 101.076 66.5097 100.945C66.712 100.814 66.8726 100.628 66.9726 100.409L71.7966 85.4438C71.8544 85.3626 71.8885 85.267 71.895 85.1676C71.9015 85.0683 71.8802 84.969 71.8334 84.8811C71.7867 84.7931 71.7163 84.72 71.6303 84.6698C71.5443 84.6196 71.446 84.5943 71.3464 84.5969L63.494 84.0609C63.2544 84.0655 63.0208 84.1373 62.82 84.2681C62.6191 84.3988 62.4589 84.5833 62.3577 84.8006Z" fill="#37474F"/>
<path d="M63.2904 84.8542L58.4664 99.8246C58.2734 100.259 58.4664 100.639 58.9112 100.666L66.7636 101.202C67.0043 101.199 67.2393 101.128 67.4413 100.997C67.6433 100.866 67.8042 100.681 67.9053 100.462L72.7293 85.492C72.7853 85.4113 72.8181 85.3167 72.824 85.2187C72.8299 85.1206 72.8087 85.0228 72.7628 84.936C72.7169 84.8491 72.648 84.7765 72.5636 84.7262C72.4793 84.6758 72.3827 84.6497 72.2844 84.6505L64.4267 84.1145C64.187 84.1191 63.9535 84.1909 63.7526 84.3217C63.5518 84.4524 63.3916 84.6369 63.2904 84.8542Z" fill="#455A64"/>
<path d="M65.3912 85.6903C65.3791 85.821 65.3286 85.9452 65.246 86.0472C65.1634 86.1492 65.0525 86.2244 64.9272 86.2635C64.802 86.3026 64.6679 86.3037 64.542 86.2667C64.4161 86.2297 64.304 86.1562 64.2197 86.0556C64.1355 85.955 64.0829 85.8316 64.0687 85.7012C64.0544 85.5707 64.0791 85.439 64.1396 85.3225C64.2001 85.2061 64.2938 85.1102 64.4087 85.0468C64.5236 84.9835 64.6548 84.9556 64.7855 84.9667C64.8729 84.9741 64.958 84.9988 65.0358 85.0392C65.1137 85.0797 65.1827 85.1351 65.239 85.2024C65.2954 85.2697 65.3378 85.3474 65.3639 85.4311C65.39 85.5149 65.3993 85.603 65.3912 85.6903Z" fill="#263238"/>
<path d="M32.5612 118.15C35.9916 118.622 40.2635 115.958 51.348 107.865C52.8863 106.75 47.8962 93.7946 46.1917 94.9095C44.0477 96.3085 36.0506 102.204 35.5199 102.708C31.0443 106.97 30.235 117.834 32.5612 118.15Z" fill="#AD6359"/>
<path d="M42.2362 98.8277C42.2362 98.8277 45.3932 94.395 47.7731 92.5833C50.2876 90.7616 53.2065 89.5771 56.2794 89.1314C59.5972 88.6437 67.9695 89.7586 68.0714 92.2242C68.1571 94.4593 59.6615 92.8888 59.6615 92.8888C59.6615 92.8888 68.5913 93.0603 68.2054 95.7671C67.8195 98.4739 58.0589 96.0887 58.0589 96.0887C58.0589 96.0887 67.2299 96.4746 66.3883 99.2029C65.7559 101.266 56.7886 99.6049 56.7886 99.6049C56.7886 99.6049 64.6731 99.9908 64.1103 102.14C63.4886 104.515 55.1216 103.502 55.1216 103.502C52.7739 108.722 49.4079 110.196 46.9637 111.006C46.3955 111.204 42.2362 98.8277 42.2362 98.8277Z" fill="#AD6359"/>
<path d="M56.5957 92.6315C57.6677 92.6315 58.7076 92.5886 59.7581 92.6637C60.8087 92.7387 61.8539 92.8513 62.8884 93.0228C64.247 93.2281 65.5777 93.5877 66.8548 94.0948C64.5232 93.3712 60.7765 93.0228 59.726 92.9638C58.6754 92.9049 57.6409 92.7602 56.5957 92.6851C56.5689 92.669 56.5743 92.6315 56.5957 92.6315Z" fill="#263238"/>
<path d="M56.2798 96.405C57.6198 96.4425 58.9598 96.405 60.2944 96.5229C61.629 96.6408 62.8833 96.823 64.2072 97.0106C64.3091 97.0106 64.2662 97.075 64.1643 97.0642C62.835 96.9302 61.5969 96.9088 60.2622 96.7909C58.9276 96.673 57.5822 96.5068 56.2744 96.4371C56.2315 96.4371 56.2369 96.405 56.2798 96.405Z" fill="#263238"/>
<path d="M55.379 99.5942C57.4376 99.5976 59.4904 99.8113 61.5055 100.232C61.6074 100.232 61.543 100.312 61.4412 100.296C59.4098 100.044 57.8178 99.83 55.379 99.6585C55.3415 99.6638 55.3362 99.5995 55.379 99.5942Z" fill="#263238"/>
<path d="M42.2365 97.0642L46.6317 112.983C46.6317 112.983 34.9094 119.882 32.3205 118.054C29.7316 116.226 31.4254 107.039 34.3573 103.534C35.5526 102.076 42.2365 97.0642 42.2365 97.0642Z" fill="#DC0804"/>
<path d="M42.3811 97.5949L42.2096 97.0589H42.2525C41.1429 97.9647 40.0334 98.8598 38.94 99.771C37.8465 100.682 36.7477 101.593 35.724 102.558C35.1955 103.026 34.6978 103.527 34.2339 104.059C33.7923 104.605 33.3978 105.188 33.0547 105.801C32.3673 107.058 31.8842 108.417 31.6236 109.826C31.7369 108.386 32.1263 106.981 32.7706 105.688C33.0944 105.038 33.486 104.423 33.9391 103.855C34.4033 103.3 34.9047 102.777 35.4399 102.29C36.5119 101.325 37.5839 100.425 38.7417 99.5459C39.8994 98.6669 41.0357 97.8361 42.2257 97.0428H42.2578V97.0803L42.3811 97.5949Z" fill="#263238"/>
<path d="M39.6633 101.015C39.9313 101.797 40.1296 102.623 40.3547 103.4C40.5799 104.177 40.7889 105.008 40.9926 105.796C41.3946 107.404 41.7912 109.012 42.1718 110.62C42.2736 111.059 42.3755 111.504 42.4719 111.944C42.5684 112.383 42.6167 112.903 42.7185 113.375C42.7185 113.378 42.7178 113.382 42.7165 113.385C42.7151 113.388 42.7131 113.391 42.7107 113.394C42.7082 113.396 42.7052 113.398 42.702 113.399C42.6987 113.401 42.6952 113.402 42.6917 113.402C42.6882 113.402 42.6847 113.401 42.6815 113.399C42.6782 113.398 42.6752 113.396 42.6728 113.394C42.6703 113.391 42.6683 113.388 42.6669 113.385C42.6656 113.382 42.6649 113.378 42.6649 113.375C42.5577 112.983 42.3915 112.603 42.279 112.217C42.1664 111.831 42.0485 111.402 41.9413 110.995C41.7323 110.196 41.5232 109.387 41.3195 108.594C40.9122 106.986 40.5102 105.378 40.1564 103.77C39.9527 102.853 39.7276 101.942 39.5775 101.02C39.5768 101.009 39.5807 100.997 39.5882 100.989C39.5958 100.98 39.6064 100.975 39.6177 100.974C39.6291 100.974 39.6403 100.977 39.6489 100.985C39.6574 100.993 39.6626 101.003 39.6633 101.015Z" fill="#263238"/>
<path d="M46.6316 112.983C46.7066 113.134 46.7013 112.983 46.6852 112.914C46.6691 112.844 46.4869 112.051 46.3207 111.568C46.3207 111.52 46.2296 111.434 46.2564 111.606C46.356 112.072 46.4812 112.532 46.6316 112.983Z" fill="#263238"/>
</svg>
